<svg width="427" height="86" viewBox="0 0 427 86" fill="none" xmlns="http://www.w3.org/2000/svg">
<g clip-path="url(#clip0_119_411)">
<rect width="427" height="86" rx="20" fill="#D4D2EB"/>
<path d="M25.324 33.104H30.63V34H24.316V24.088H30.462V24.984H25.324V28.4H30.126V29.282H25.324V33.104ZM36.9692 28.092L39.6712 24.088H40.8752L37.5852 28.806L41.2252 34H39.9652L36.9412 29.534L33.9312 34H32.6712L36.3112 28.792L32.9932 24.088H34.2532L36.9692 28.092ZM43.933 24.088H46.733C47.237 24.088 47.6943 24.144 48.105 24.256C48.5156 24.3587 48.8656 24.522 49.155 24.746C49.4536 24.9607 49.6823 25.236 49.841 25.572C49.9996 25.8987 50.079 26.286 50.079 26.734C50.079 27.182 49.995 27.574 49.827 27.91C49.6683 28.2367 49.4396 28.512 49.141 28.736C48.8516 28.9507 48.497 29.114 48.077 29.226C47.6663 29.338 47.209 29.394 46.705 29.394H44.941V34H43.933V24.088ZM44.941 28.54H46.649C47.4423 28.54 48.0443 28.386 48.455 28.078C48.8656 27.77 49.071 27.322 49.071 26.734C49.071 26.118 48.8563 25.67 48.427 25.39C48.007 25.1007 47.4143 24.956 46.649 24.956H44.941V28.54ZM54.182 33.104H58.802V34H53.174V24.088H54.182V33.104ZM70.8069 29.044C70.8069 29.8 70.6763 30.4953 70.4149 31.13C70.1536 31.7647 69.7896 32.3153 69.3229 32.782C68.8656 33.2393 68.3196 33.5987 67.6849 33.86C67.0596 34.1213 66.3783 34.252 65.6409 34.252C64.9036 34.252 64.2176 34.1213 63.5829 33.86C62.9576 33.5987 62.4116 33.2393 61.9449 32.782C61.4876 32.3153 61.1283 31.7647 60.8669 31.13C60.6056 30.4953 60.4749 29.8 60.4749 29.044C60.4749 28.288 60.6056 27.5927 60.8669 26.958C61.1283 26.3233 61.4876 25.7773 61.9449 25.32C62.4116 24.8533 62.9576 24.4893 63.5829 24.228C64.2176 23.9667 64.9036 23.836 65.6409 23.836C66.3783 23.836 67.0596 23.9667 67.6849 24.228C68.3196 24.4893 68.8656 24.8533 69.3229 25.32C69.7896 25.7773 70.1536 26.3233 70.4149 26.958C70.6763 27.5927 70.8069 28.288 70.8069 29.044ZM69.7429 29.044C69.7429 28.4653 69.6496 27.9147 69.4629 27.392C69.2763 26.8693 69.0056 26.412 68.6509 26.02C68.2963 25.6187 67.8623 25.3013 67.3489 25.068C66.8449 24.8347 66.2756 24.718 65.6409 24.718C65.0063 24.718 64.4323 24.8347 63.9189 25.068C63.4149 25.3013 62.9856 25.6187 62.6309 26.02C62.2763 26.412 62.0056 26.8693 61.8189 27.392C61.6323 27.9147 61.5389 28.4653 61.5389 29.044C61.5389 29.6227 61.6323 30.1733 61.8189 30.696C62.0056 31.2187 62.2763 31.676 62.6309 32.068C62.9856 32.46 63.4149 32.7727 63.9189 33.006C64.4323 33.2393 65.0063 33.356 65.6409 33.356C66.2756 33.356 66.8449 33.2393 67.3489 33.006C67.8623 32.7727 68.2963 32.46 68.6509 32.068C69.0056 31.676 69.2763 31.2187 69.4629 30.696C69.6496 30.1733 69.7429 29.6227 69.7429 29.044ZM75.0295 34H74.0215V24.088H76.9335C77.4188 24.088 77.8668 24.1347 78.2775 24.228C78.6975 24.3213 79.0568 24.4753 79.3555 24.69C79.6635 24.8953 79.9015 25.166 80.0695 25.502C80.2375 25.838 80.3215 26.2487 80.3215 26.734C80.3215 27.098 80.2561 27.4293 80.1255 27.728C79.9948 28.0267 79.8175 28.288 79.5935 28.512C79.3695 28.7267 79.1035 28.8993 78.7955 29.03C78.4875 29.1607 78.1515 29.2447 77.7875 29.282L80.6855 34H79.4535L76.7095 29.366H75.0295V34ZM75.0295 28.498H76.7795C77.5915 28.498 78.2168 28.3533 78.6555 28.064C79.0941 27.7653 79.3135 27.322 79.3135 26.734C79.3135 26.4073 79.2528 26.132 79.1315 25.908C79.0101 25.684 78.8421 25.502 78.6275 25.362C78.4128 25.222 78.1515 25.1193 77.8435 25.054C77.5355 24.9887 77.1948 24.956 76.8215 24.956H75.0295V28.498ZM84.5303 33.104H89.8363V34H83.5223V24.088H89.6683V24.984H84.5303V28.4H89.3323V29.282H84.5303V33.104Z" fill="black"/>
<path d="M31.78 46.8C31.5133 46.4533 31.1333 46.1667 30.64 45.94C30.16 45.7 29.6733 45.58 29.18 45.58C28.8867 45.58 28.5933 45.62 28.3 45.7C28.0067 45.7667 27.74 45.88 27.5 46.04C27.26 46.1867 27.06 46.3867 26.9 46.64C26.7533 46.88 26.68 47.1733 26.68 47.52C26.68 47.84 26.7467 48.1133 26.88 48.34C27.0133 48.5667 27.1933 48.76 27.42 48.92C27.66 49.08 27.9467 49.22 28.28 49.34C28.6133 49.46 28.98 49.58 29.38 49.7C29.8333 49.8467 30.3 50.0133 30.78 50.2C31.2733 50.3867 31.72 50.6333 32.12 50.94C32.5333 51.2467 32.8667 51.6333 33.12 52.1C33.3867 52.5667 33.52 53.1467 33.52 53.84C33.52 54.6 33.38 55.2667 33.1 55.84C32.82 56.4 32.4467 56.8667 31.98 57.24C31.5133 57.6133 30.9667 57.8933 30.34 58.08C29.7133 58.2667 29.0533 58.36 28.36 58.36C27.44 58.36 26.54 58.1933 25.66 57.86C24.78 57.5133 24.06 57.0067 23.5 56.34L25.3 54.66C25.6467 55.14 26.1067 55.52 26.68 55.8C27.2667 56.08 27.84 56.22 28.4 56.22C28.6933 56.22 28.9933 56.1867 29.3 56.12C29.6067 56.04 29.88 55.9133 30.12 55.74C30.3733 55.5667 30.5733 55.3533 30.72 55.1C30.88 54.8333 30.96 54.5067 30.96 54.12C30.96 53.7467 30.8733 53.44 30.7 53.2C30.5267 52.9467 30.2933 52.7333 30 52.56C29.7067 52.3733 29.36 52.2133 28.96 52.08C28.56 51.9467 28.14 51.8067 27.7 51.66C27.2733 51.5267 26.8467 51.3667 26.42 51.18C25.9933 50.9933 25.6067 50.7467 25.26 50.44C24.9267 50.1333 24.6533 49.76 24.44 49.32C24.2267 48.8667 24.12 48.3067 24.12 47.64C24.12 46.92 24.2667 46.3 24.56 45.78C24.8667 45.26 25.26 44.8333 25.74 44.5C26.2333 44.1533 26.7867 43.9 27.4 43.74C28.0267 43.5667 28.66 43.48 29.3 43.48C30.02 43.48 30.7467 43.6067 31.48 43.86C32.2267 44.1133 32.8733 44.4933 33.42 45L31.78 46.8ZM35.7644 53.16C35.7644 52.4 35.8977 51.7133 36.1644 51.1C36.4444 50.4733 36.8177 49.94 37.2844 49.5C37.751 49.06 38.3044 48.72 38.9444 48.48C39.5844 48.24 40.2644 48.12 40.9844 48.12C41.7044 48.12 42.3844 48.24 43.0244 48.48C43.6644 48.72 44.2177 49.06 44.6844 49.5C45.151 49.94 45.5177 50.4733 45.7844 51.1C46.0644 51.7133 46.2044 52.4 46.2044 53.16C46.2044 53.92 46.0644 54.6133 45.7844 55.24C45.5177 55.8667 45.151 56.4067 44.6844 56.86C44.2177 57.3 43.6644 57.6467 43.0244 57.9C42.3844 58.1533 41.7044 58.28 40.9844 58.28C40.2644 58.28 39.5844 58.1533 38.9444 57.9C38.3044 57.6467 37.751 57.3 37.2844 56.86C36.8177 56.4067 36.4444 55.8667 36.1644 55.24C35.8977 54.6133 35.7644 53.92 35.7644 53.16ZM38.2044 53.16C38.2044 53.5333 38.2577 53.9067 38.3644 54.28C38.4844 54.6533 38.6577 54.9867 38.8844 55.28C39.111 55.5733 39.3977 55.8133 39.7444 56C40.091 56.1867 40.5044 56.28 40.9844 56.28C41.4644 56.28 41.8777 56.1867 42.2244 56C42.571 55.8133 42.8577 55.5733 43.0844 55.28C43.311 54.9867 43.4777 54.6533 43.5844 54.28C43.7044 53.9067 43.7644 53.5333 43.7644 53.16C43.7644 52.7867 43.7044 52.42 43.5844 52.06C43.4777 51.6867 43.311 51.3533 43.0844 51.06C42.8577 50.7667 42.571 50.5333 42.2244 50.36C41.8777 50.1733 41.4644 50.08 40.9844 50.08C40.5044 50.08 40.091 50.1733 39.7444 50.36C39.3977 50.5333 39.111 50.7667 38.8844 51.06C38.6577 51.3533 38.4844 51.6867 38.3644 52.06C38.2577 52.42 38.2044 52.7867 38.2044 53.16ZM48.9714 42.88H51.3714V58H48.9714V42.88ZM63.443 58H61.163V56.46H61.123C60.9096 56.94 60.5363 57.3667 60.003 57.74C59.483 58.1 58.863 58.28 58.143 58.28C57.5163 58.28 56.9763 58.1733 56.523 57.96C56.083 57.7333 55.7163 57.44 55.423 57.08C55.143 56.72 54.9363 56.3067 54.803 55.84C54.6696 55.3733 54.603 54.8933 54.603 54.4V48.4H57.003V53.72C57.003 54 57.023 54.2933 57.063 54.6C57.103 54.9067 57.1896 55.1867 57.323 55.44C57.4563 55.68 57.6363 55.88 57.863 56.04C58.103 56.2 58.4163 56.28 58.803 56.28C59.1763 56.28 59.503 56.2067 59.783 56.06C60.0763 55.9 60.3096 55.7 60.483 55.46C60.6696 55.22 60.8096 54.9467 60.903 54.64C60.9963 54.32 61.043 54 61.043 53.68V48.4H63.443V58ZM65.3436 50.32V48.4H67.0236V45.62H69.3836V48.4H71.7836V50.32H69.3836V54.78C69.3836 55.2067 69.4569 55.56 69.6036 55.84C69.7636 56.12 70.1103 56.26 70.6436 56.26C70.8036 56.26 70.9769 56.2467 71.1636 56.22C71.3503 56.18 71.5169 56.1267 71.6636 56.06L71.7436 57.94C71.5303 58.02 71.2769 58.08 70.9836 58.12C70.6903 58.1733 70.4103 58.2 70.1436 58.2C69.5036 58.2 68.9836 58.1133 68.5836 57.94C68.1836 57.7533 67.8636 57.5067 67.6236 57.2C67.3969 56.88 67.2369 56.52 67.1436 56.12C67.0636 55.7067 67.0236 55.2667 67.0236 54.8V50.32H65.3436ZM73.9605 48.4H76.3605V58H73.9605V48.4ZM73.6205 45.14C73.6205 44.7533 73.7605 44.42 74.0405 44.14C74.3338 43.8467 74.7005 43.7 75.1405 43.7C75.5805 43.7 75.9471 43.84 76.2405 44.12C76.5471 44.3867 76.7005 44.7267 76.7005 45.14C76.7005 45.5533 76.5471 45.9 76.2405 46.18C75.9471 46.4467 75.5805 46.58 75.1405 46.58C74.7005 46.58 74.3338 46.44 74.0405 46.16C73.7605 45.8667 73.6205 45.5267 73.6205 45.14ZM79.112 53.16C79.112 52.4 79.2454 51.7133 79.512 51.1C79.792 50.4733 80.1654 49.94 80.632 49.5C81.0987 49.06 81.652 48.72 82.292 48.48C82.932 48.24 83.612 48.12 84.332 48.12C85.052 48.12 85.732 48.24 86.372 48.48C87.012 48.72 87.5654 49.06 88.032 49.5C88.4987 49.94 88.8654 50.4733 89.132 51.1C89.412 51.7133 89.552 52.4 89.552 53.16C89.552 53.92 89.412 54.6133 89.132 55.24C88.8654 55.8667 88.4987 56.4067 88.032 56.86C87.5654 57.3 87.012 57.6467 86.372 57.9C85.732 58.1533 85.052 58.28 84.332 58.28C83.612 58.28 82.932 58.1533 82.292 57.9C81.652 57.6467 81.0987 57.3 80.632 56.86C80.1654 56.4067 79.792 55.8667 79.512 55.24C79.2454 54.6133 79.112 53.92 79.112 53.16ZM81.552 53.16C81.552 53.5333 81.6054 53.9067 81.712 54.28C81.832 54.6533 82.0054 54.9867 82.232 55.28C82.4587 55.5733 82.7454 55.8133 83.092 56C83.4387 56.1867 83.852 56.28 84.332 56.28C84.812 56.28 85.2254 56.1867 85.572 56C85.9187 55.8133 86.2054 55.5733 86.432 55.28C86.6587 54.9867 86.8254 54.6533 86.932 54.28C87.052 53.9067 87.112 53.5333 87.112 53.16C87.112 52.7867 87.052 52.42 86.932 52.06C86.8254 51.6867 86.6587 51.3533 86.432 51.06C86.2054 50.7667 85.9187 50.5333 85.572 50.36C85.2254 50.1733 84.812 50.08 84.332 50.08C83.852 50.08 83.4387 50.1733 83.092 50.36C82.7454 50.5333 82.4587 50.7667 82.232 51.06C82.0054 51.3533 81.832 51.6867 81.712 52.06C81.6054 52.42 81.552 52.7867 81.552 53.16ZM92.2791 48.4H94.5591V49.94H94.5991C94.8124 49.46 95.1791 49.04 95.6991 48.68C96.2324 48.3067 96.8591 48.12 97.5791 48.12C98.2057 48.12 98.7391 48.2333 99.1791 48.46C99.6324 48.6733 99.9991 48.96 100.279 49.32C100.572 49.68 100.786 50.0933 100.919 50.56C101.052 51.0267 101.119 51.5067 101.119 52V58H98.7191V52.68C98.7191 52.4 98.6991 52.1067 98.6591 51.8C98.6191 51.4933 98.5324 51.22 98.3991 50.98C98.2657 50.7267 98.0791 50.52 97.8391 50.36C97.6124 50.2 97.3057 50.12 96.9191 50.12C96.5324 50.12 96.1991 50.2 95.9191 50.36C95.6391 50.5067 95.4057 50.7 95.2191 50.94C95.0457 51.18 94.9124 51.46 94.8191 51.78C94.7257 52.0867 94.6791 52.4 94.6791 52.72V58H92.2791V48.4ZM109.58 50.96C109.366 50.68 109.073 50.44 108.7 50.24C108.326 50.0267 107.92 49.92 107.48 49.92C107.093 49.92 106.74 50 106.42 50.16C106.1 50.32 105.94 50.5867 105.94 50.96C105.94 51.3333 106.113 51.6 106.46 51.76C106.82 51.9067 107.34 52.06 108.02 52.22C108.38 52.3 108.74 52.4067 109.1 52.54C109.473 52.6733 109.806 52.8533 110.1 53.08C110.406 53.2933 110.653 53.5667 110.84 53.9C111.026 54.22 111.12 54.6133 111.12 55.08C111.12 55.6667 111.006 56.1667 110.78 56.58C110.566 56.98 110.273 57.3067 109.9 57.56C109.54 57.8133 109.113 57.9933 108.62 58.1C108.14 58.22 107.64 58.28 107.12 58.28C106.373 58.28 105.646 58.1467 104.94 57.88C104.233 57.6 103.646 57.2067 103.18 56.7L104.76 55.22C105.026 55.5667 105.373 55.8533 105.8 56.08C106.226 56.3067 106.7 56.42 107.22 56.42C107.393 56.42 107.566 56.4 107.74 56.36C107.926 56.32 108.093 56.26 108.24 56.18C108.4 56.0867 108.526 55.9667 108.62 55.82C108.713 55.6733 108.76 55.4933 108.76 55.28C108.76 54.88 108.573 54.5933 108.2 54.42C107.84 54.2467 107.293 54.0733 106.56 53.9C106.2 53.82 105.846 53.72 105.5 53.6C105.166 53.4667 104.866 53.3 104.6 53.1C104.333 52.8867 104.12 52.6267 103.96 52.32C103.8 52.0133 103.72 51.6333 103.72 51.18C103.72 50.6467 103.826 50.1867 104.04 49.8C104.266 49.4133 104.56 49.1 104.92 48.86C105.28 48.6067 105.686 48.42 106.14 48.3C106.593 48.18 107.06 48.12 107.54 48.12C108.233 48.12 108.906 48.24 109.56 48.48C110.226 48.72 110.753 49.0867 111.14 49.58L109.58 50.96ZM119.386 50.32H117.566V48.4H119.386V46.98C119.386 46.4067 119.446 45.86 119.566 45.34C119.7 44.8067 119.913 44.34 120.206 43.94C120.513 43.54 120.913 43.2267 121.406 43C121.9 42.76 122.52 42.64 123.266 42.64C123.533 42.64 123.753 42.6533 123.926 42.68C124.113 42.6933 124.3 42.7267 124.486 42.78L124.326 44.82C124.193 44.78 124.046 44.7467 123.886 44.72C123.74 44.6933 123.58 44.68 123.406 44.68C123.06 44.68 122.78 44.7467 122.566 44.88C122.353 45.0133 122.186 45.1867 122.066 45.4C121.96 45.6133 121.886 45.8467 121.846 46.1C121.806 46.3533 121.786 46.6 121.786 46.84V48.4H124.006V50.32H121.786V58H119.386V50.32ZM125.331 53.16C125.331 52.4 125.464 51.7133 125.731 51.1C126.011 50.4733 126.384 49.94 126.851 49.5C127.317 49.06 127.871 48.72 128.511 48.48C129.151 48.24 129.831 48.12 130.551 48.12C131.271 48.12 131.951 48.24 132.591 48.48C133.231 48.72 133.784 49.06 134.251 49.5C134.717 49.94 135.084 50.4733 135.351 51.1C135.631 51.7133 135.771 52.4 135.771 53.16C135.771 53.92 135.631 54.6133 135.351 55.24C135.084 55.8667 134.717 56.4067 134.251 56.86C133.784 57.3 133.231 57.6467 132.591 57.9C131.951 58.1533 131.271 58.28 130.551 58.28C129.831 58.28 129.151 58.1533 128.511 57.9C127.871 57.6467 127.317 57.3 126.851 56.86C126.384 56.4067 126.011 55.8667 125.731 55.24C125.464 54.6133 125.331 53.92 125.331 53.16ZM127.771 53.16C127.771 53.5333 127.824 53.9067 127.931 54.28C128.051 54.6533 128.224 54.9867 128.451 55.28C128.677 55.5733 128.964 55.8133 129.311 56C129.657 56.1867 130.071 56.28 130.551 56.28C131.031 56.28 131.444 56.1867 131.791 56C132.137 55.8133 132.424 55.5733 132.651 55.28C132.877 54.9867 133.044 54.6533 133.151 54.28C133.271 53.9067 133.331 53.5333 133.331 53.16C133.331 52.7867 133.271 52.42 133.151 52.06C133.044 51.6867 132.877 51.3533 132.651 51.06C132.424 50.7667 132.137 50.5333 131.791 50.36C131.444 50.1733 131.031 50.08 130.551 50.08C130.071 50.08 129.657 50.1733 129.311 50.36C128.964 50.5333 128.677 50.7667 128.451 51.06C128.224 51.3533 128.051 51.6867 127.931 52.06C127.824 52.42 127.771 52.7867 127.771 53.16ZM138.498 48.4H140.798V50H140.838C141.104 49.44 141.478 48.9867 141.958 48.64C142.438 48.2933 142.998 48.12 143.638 48.12C143.731 48.12 143.831 48.1267 143.938 48.14C144.044 48.14 144.138 48.1533 144.218 48.18V50.38C144.058 50.34 143.918 50.3133 143.798 50.3C143.691 50.2867 143.584 50.28 143.478 50.28C142.931 50.28 142.491 50.38 142.158 50.58C141.824 50.78 141.564 51.02 141.378 51.3C141.191 51.58 141.064 51.8667 140.998 52.16C140.931 52.4533 140.898 52.6867 140.898 52.86V58H138.498V48.4ZM151.703 43.84H154.223V49.56H160.843V43.84H163.363V58H160.843V51.72H154.223V58H151.703V43.84ZM173.528 52.24C173.528 51.9333 173.481 51.64 173.388 51.36C173.308 51.08 173.175 50.8333 172.988 50.62C172.801 50.4067 172.561 50.24 172.268 50.12C171.988 49.9867 171.655 49.92 171.268 49.92C170.548 49.92 169.935 50.14 169.428 50.58C168.935 51.0067 168.661 51.56 168.608 52.24H173.528ZM175.928 53.32C175.928 53.4267 175.928 53.5333 175.928 53.64C175.928 53.7467 175.921 53.8533 175.908 53.96H168.608C168.635 54.3067 168.721 54.6267 168.868 54.92C169.028 55.2 169.235 55.4467 169.488 55.66C169.741 55.86 170.028 56.02 170.348 56.14C170.668 56.26 171.001 56.32 171.348 56.32C171.948 56.32 172.455 56.2133 172.868 56C173.281 55.7733 173.621 55.4667 173.888 55.08L175.488 56.36C174.541 57.64 173.168 58.28 171.368 58.28C170.621 58.28 169.935 58.1667 169.308 57.94C168.681 57.7 168.135 57.3667 167.668 56.94C167.215 56.5133 166.855 55.9933 166.588 55.38C166.335 54.7533 166.208 54.0467 166.208 53.26C166.208 52.4867 166.335 51.7867 166.588 51.16C166.855 50.52 167.215 49.98 167.668 49.54C168.121 49.0867 168.655 48.74 169.268 48.5C169.895 48.2467 170.568 48.12 171.288 48.12C171.955 48.12 172.568 48.2333 173.128 48.46C173.701 48.6733 174.195 49 174.608 49.44C175.021 49.8667 175.341 50.4067 175.568 51.06C175.808 51.7 175.928 52.4533 175.928 53.32ZM184.495 56.78H184.435C184.195 57.2067 183.809 57.56 183.275 57.84C182.742 58.1067 182.135 58.24 181.455 58.24C181.069 58.24 180.662 58.1867 180.235 58.08C179.822 57.9867 179.435 57.8267 179.075 57.6C178.729 57.36 178.435 57.0533 178.195 56.68C177.969 56.2933 177.855 55.82 177.855 55.26C177.855 54.54 178.055 53.9667 178.455 53.54C178.869 53.1133 179.395 52.7867 180.035 52.56C180.675 52.3333 181.382 52.1867 182.155 52.12C182.942 52.04 183.709 52 184.455 52V51.76C184.455 51.16 184.235 50.72 183.795 50.44C183.369 50.1467 182.855 50 182.255 50C181.749 50 181.262 50.1067 180.795 50.32C180.329 50.5333 179.942 50.7933 179.635 51.1L178.395 49.64C178.942 49.1333 179.569 48.7533 180.275 48.5C180.995 48.2467 181.722 48.12 182.455 48.12C183.309 48.12 184.009 48.24 184.555 48.48C185.115 48.72 185.555 49.0333 185.875 49.42C186.195 49.8067 186.415 50.24 186.535 50.72C186.669 51.2 186.735 51.68 186.735 52.16V58H184.495V56.78ZM184.455 53.62H183.915C183.529 53.62 183.122 53.64 182.695 53.68C182.269 53.7067 181.875 53.78 181.515 53.9C181.155 54.0067 180.855 54.1667 180.615 54.38C180.375 54.58 180.255 54.86 180.255 55.22C180.255 55.4467 180.302 55.64 180.395 55.8C180.502 55.9467 180.635 56.0667 180.795 56.16C180.955 56.2533 181.135 56.32 181.335 56.36C181.535 56.4 181.735 56.42 181.935 56.42C182.762 56.42 183.389 56.2 183.815 55.76C184.242 55.32 184.455 54.72 184.455 53.96V53.62ZM189.971 42.88H192.371V58H189.971V42.88ZM194.303 50.32V48.4H195.983V45.62H198.343V48.4H200.743V50.32H198.343V54.78C198.343 55.2067 198.416 55.56 198.563 55.84C198.723 56.12 199.07 56.26 199.603 56.26C199.763 56.26 199.936 56.2467 200.123 56.22C200.31 56.18 200.476 56.1267 200.623 56.06L200.703 57.94C200.49 58.02 200.236 58.08 199.943 58.12C199.65 58.1733 199.37 58.2 199.103 58.2C198.463 58.2 197.943 58.1133 197.543 57.94C197.143 57.7533 196.823 57.5067 196.583 57.2C196.356 56.88 196.196 56.52 196.103 56.12C196.023 55.7067 195.983 55.2667 195.983 54.8V50.32H194.303ZM208.22 48.12C208.847 48.12 209.38 48.2333 209.82 48.46C210.273 48.6733 210.64 48.96 210.92 49.32C211.213 49.68 211.427 50.0933 211.56 50.56C211.693 51.0267 211.76 51.5067 211.76 52V58H209.36V52.72C209.36 52.44 209.34 52.1533 209.3 51.86C209.26 51.5533 209.173 51.28 209.04 51.04C208.92 50.7867 208.74 50.58 208.5 50.42C208.273 50.26 207.967 50.18 207.58 50.18C207.193 50.18 206.86 50.2533 206.58 50.4C206.3 50.5467 206.067 50.7467 205.88 51C205.693 51.24 205.553 51.5133 205.46 51.82C205.367 52.1267 205.32 52.44 205.32 52.76V58H202.92V42.88H205.32V49.74H205.36C205.453 49.54 205.587 49.3467 205.76 49.16C205.947 48.96 206.16 48.7867 206.4 48.64C206.64 48.48 206.913 48.3533 207.22 48.26C207.527 48.1667 207.86 48.12 208.22 48.12ZM220.48 43.84H225.1C225.913 43.84 226.646 43.9133 227.3 44.06C227.953 44.2067 228.513 44.4467 228.98 44.78C229.446 45.1133 229.806 45.54 230.06 46.06C230.313 46.58 230.44 47.2067 230.44 47.94C230.44 48.7267 230.293 49.3867 230 49.92C229.706 50.4533 229.306 50.8867 228.8 51.22C228.306 51.54 227.726 51.7733 227.06 51.92C226.393 52.0667 225.686 52.14 224.94 52.14H223V58H220.48V43.84ZM224.76 50.02C225.173 50.02 225.566 49.9933 225.94 49.94C226.313 49.8733 226.646 49.7667 226.94 49.62C227.233 49.46 227.466 49.2467 227.64 48.98C227.813 48.7133 227.9 48.3667 227.9 47.94C227.9 47.5267 227.813 47.1933 227.64 46.94C227.466 46.6733 227.233 46.4667 226.94 46.32C226.66 46.1733 226.333 46.08 225.96 46.04C225.6 45.9867 225.226 45.96 224.84 45.96H223V50.02H224.76ZM233.007 42.88H235.407V58H233.007V42.88ZM244.678 56.78H244.618C244.378 57.2067 243.991 57.56 243.458 57.84C242.925 58.1067 242.318 58.24 241.638 58.24C241.251 58.24 240.845 58.1867 240.418 58.08C240.005 57.9867 239.618 57.8267 239.258 57.6C238.911 57.36 238.618 57.0533 238.378 56.68C238.151 56.2933 238.038 55.82 238.038 55.26C238.038 54.54 238.238 53.9667 238.638 53.54C239.051 53.1133 239.578 52.7867 240.218 52.56C240.858 52.3333 241.565 52.1867 242.338 52.12C243.125 52.04 243.891 52 244.638 52V51.76C244.638 51.16 244.418 50.72 243.978 50.44C243.551 50.1467 243.038 50 242.438 50C241.931 50 241.445 50.1067 240.978 50.32C240.511 50.5333 240.125 50.7933 239.818 51.1L238.578 49.64C239.125 49.1333 239.751 48.7533 240.458 48.5C241.178 48.2467 241.905 48.12 242.638 48.12C243.491 48.12 244.191 48.24 244.738 48.48C245.298 48.72 245.738 49.0333 246.058 49.42C246.378 49.8067 246.598 50.24 246.718 50.72C246.851 51.2 246.918 51.68 246.918 52.16V58H244.678V56.78ZM244.638 53.62H244.098C243.711 53.62 243.305 53.64 242.878 53.68C242.451 53.7067 242.058 53.78 241.698 53.9C241.338 54.0067 241.038 54.1667 240.798 54.38C240.558 54.58 240.438 54.86 240.438 55.22C240.438 55.4467 240.485 55.64 240.578 55.8C240.685 55.9467 240.818 56.0667 240.978 56.16C241.138 56.2533 241.318 56.32 241.518 56.36C241.718 56.4 241.918 56.42 242.118 56.42C242.945 56.42 243.571 56.2 243.998 55.76C244.425 55.32 244.638 54.72 244.638 53.96V53.62ZM250.114 48.4H252.394V49.94H252.434C252.648 49.46 253.014 49.04 253.534 48.68C254.068 48.3067 254.694 48.12 255.414 48.12C256.041 48.12 256.574 48.2333 257.014 48.46C257.468 48.6733 257.834 48.96 258.114 49.32C258.408 49.68 258.621 50.0933 258.754 50.56C258.888 51.0267 258.954 51.5067 258.954 52V58H256.554V52.68C256.554 52.4 256.534 52.1067 256.494 51.8C256.454 51.4933 256.368 51.22 256.234 50.98C256.101 50.7267 255.914 50.52 255.674 50.36C255.448 50.2 255.141 50.12 254.754 50.12C254.368 50.12 254.034 50.2 253.754 50.36C253.474 50.5067 253.241 50.7 253.054 50.94C252.881 51.18 252.748 51.46 252.654 51.78C252.561 52.0867 252.514 52.4 252.514 52.72V58H250.114V48.4ZM267.415 50.96C267.202 50.68 266.908 50.44 266.535 50.24C266.162 50.0267 265.755 49.92 265.315 49.92C264.928 49.92 264.575 50 264.255 50.16C263.935 50.32 263.775 50.5867 263.775 50.96C263.775 51.3333 263.948 51.6 264.295 51.76C264.655 51.9067 265.175 52.06 265.855 52.22C266.215 52.3 266.575 52.4067 266.935 52.54C267.308 52.6733 267.642 52.8533 267.935 53.08C268.242 53.2933 268.488 53.5667 268.675 53.9C268.862 54.22 268.955 54.6133 268.955 55.08C268.955 55.6667 268.842 56.1667 268.615 56.58C268.402 56.98 268.108 57.3067 267.735 57.56C267.375 57.8133 266.948 57.9933 266.455 58.1C265.975 58.22 265.475 58.28 264.955 58.28C264.208 58.28 263.482 58.1467 262.775 57.88C262.068 57.6 261.482 57.2067 261.015 56.7L262.595 55.22C262.862 55.5667 263.208 55.8533 263.635 56.08C264.062 56.3067 264.535 56.42 265.055 56.42C265.228 56.42 265.402 56.4 265.575 56.36C265.762 56.32 265.928 56.26 266.075 56.18C266.235 56.0867 266.362 55.9667 266.455 55.82C266.548 55.6733 266.595 55.4933 266.595 55.28C266.595 54.88 266.408 54.5933 266.035 54.42C265.675 54.2467 265.128 54.0733 264.395 53.9C264.035 53.82 263.682 53.72 263.335 53.6C263.002 53.4667 262.702 53.3 262.435 53.1C262.168 52.8867 261.955 52.6267 261.795 52.32C261.635 52.0133 261.555 51.6333 261.555 51.18C261.555 50.6467 261.662 50.1867 261.875 49.8C262.102 49.4133 262.395 49.1 262.755 48.86C263.115 48.6067 263.522 48.42 263.975 48.3C264.428 48.18 264.895 48.12 265.375 48.12C266.068 48.12 266.742 48.24 267.395 48.48C268.062 48.72 268.588 49.0867 268.975 49.58L267.415 50.96Z" fill="black"/>
<g clip-path="url(#clip1_119_411)">
<path d="M388.5 31C379.402 31 372 38.4021 372 47.5C372 56.5979 379.402 64 388.5 64C397.598 64 405 56.5979 405 47.5C405 38.4021 397.598 31 388.5 31ZM388.5 62.3513C380.311 62.3513 373.649 55.6894 373.649 47.5C373.649 39.3106 380.311 32.6487 388.5 32.6487C396.689 32.6487 403.351 39.3106 403.351 47.5C403.351 55.6894 396.689 62.3513 388.5 62.3513Z" fill="black"/>
<path d="M396.252 46.9146L391.616 42.2781C391.293 41.9551 390.775 41.9551 390.452 42.2781C390.129 42.6011 390.129 43.1193 390.452 43.4423L393.682 46.6723H381.334C380.876 46.6723 380.506 47.0424 380.506 47.5C380.506 47.9576 380.876 48.3277 381.334 48.3277H393.675L390.445 51.5577C390.122 51.8807 390.122 52.3989 390.445 52.7219C390.768 53.0449 391.286 53.0449 391.609 52.7219L396.245 48.0854C396.407 47.9239 396.488 47.7153 396.488 47.5C396.488 47.2847 396.414 47.0761 396.252 46.9146Z" fill="black"/>
</g>
</g>
<defs>
<clipPath id="clip0_119_411">
<rect width="427" height="86" rx="20" fill="white"/>
</clipPath>
<clipPath id="clip1_119_411">
<rect width="33" height="33" fill="white" transform="matrix(0 -1 1 0 372 64)"/>
</clipPath>
</defs>
</svg>
