<svg width="60" height="60" viewBox="0 0 60 60" fill="none" xmlns="http://www.w3.org/2000/svg">
<g style="mix-blend-mode:luminosity">
<path d="M37.9097 54.4441L37.8989 54.4405L37.888 54.4374C32.7437 52.9786 26.4428 53.5786 21.3668 55.0175C21.2975 55.036 21.2565 55.0365 21.2368 55.0347C21.2195 55.0332 21.2136 55.0297 21.2106 55.0279C21.1995 55.0212 21.1532 54.9855 21.0927 54.8481C21.0332 54.713 20.9833 54.5346 20.9298 54.3075C20.9148 54.2437 20.8991 54.1744 20.8828 54.1022C20.8455 53.9368 20.8046 53.7557 20.7593 53.588L20.7594 53.588L20.7559 53.576C20.6763 53.3082 20.5711 53.0733 20.4847 52.8857C20.4767 52.8685 20.4691 52.8519 20.4617 52.8358C20.3933 52.6875 20.3478 52.5888 20.3203 52.5092C20.3428 52.501 20.3713 52.4919 20.407 52.4823L20.407 52.4823L20.4127 52.4807C25.9725 50.9062 33.7996 50.9063 39.3604 52.4802C39.5506 52.537 39.6236 52.5903 39.6473 52.6133C39.6478 52.6138 39.6483 52.6143 39.6488 52.6148C39.6572 52.6228 39.6623 52.6277 39.6653 52.6608C39.6703 52.716 39.662 52.8108 39.6206 52.9786C39.59 53.1027 39.5498 53.2357 39.5014 53.3958C39.4849 53.4507 39.4673 53.5087 39.4489 53.5707C39.3771 53.7946 39.3304 54.0282 39.2912 54.2273L39.286 54.2539C39.2465 54.4545 39.2149 54.6155 39.1726 54.7535C39.1308 54.8901 39.0929 54.9527 39.0703 54.9789L39.0425 54.9655C38.9368 54.9147 38.794 54.8463 38.6463 54.7762C38.4989 54.7063 38.3453 54.6341 38.2183 54.5759C38.1057 54.5243 37.9792 54.4673 37.9097 54.4441Z" stroke="black"/>
<path d="M47.6519 16.1157L47.6523 16.1165C52.5666 25.9937 47.8356 36.762 40.2455 41.8792L40.025 42.0279V42.2938V44.0438V44.0531L40.0253 44.0623C40.0373 44.3848 40.0313 45.3585 40.0219 46.2698C40.0172 46.7214 40.0118 47.1521 40.0075 47.4699L40.007 47.5033C39.7484 47.505 39.4063 47.5072 39.0284 47.5093C38.2096 47.5141 37.2234 47.5188 36.55 47.5188H23.725H23.719H23.7129H23.7068H23.7006H23.6944H23.6882H23.6819H23.6755H23.6692H23.6627H23.6563H23.6498H23.6432H23.6366H23.63H23.6233H23.6166H23.6099H23.6031H23.5962H23.5894H23.5825H23.5755H23.5685H23.5615H23.5544H23.5473H23.5401H23.533H23.5257H23.5185H23.5112H23.5038H23.4964H23.489H23.4816H23.4741H23.4666H23.459H23.4514H23.4438H23.4361H23.4284H23.4207H23.4129H23.4051H23.3972H23.3894H23.3814H23.3735H23.3655H23.3575H23.3495H23.3414H23.3333H23.3251H23.317H23.3087H23.3005H23.2922H23.2839H23.2756H23.2672H23.2588H23.2504H23.242H23.2335H23.2249H23.2164H23.2078H23.1992H23.1906H23.1819H23.1732H23.1645H23.1558H23.147H23.1382H23.1294H23.1205H23.1116H23.1027H23.0938H23.0848H23.0758H23.0668H23.0577H23.0487H23.0396H23.0305H23.0213H23.0122H23.003H22.9937H22.9845H22.9752H22.966H22.9566H22.9473H22.9379H22.9286H22.9192H22.9097H22.9003H22.8908H22.8813H22.8718H22.8623H22.8527H22.8432H22.8336H22.824H22.8143H22.8047H22.795H22.7853H22.7756H22.7659H22.7561H22.7464H22.7366H22.7268H22.7169H22.7071H22.6972H22.6874H22.6775H22.6676H22.6577H22.6477H22.6378H22.6278H22.6178H22.6078H22.5978H22.5877H22.5777H22.5676H22.5576H22.5475H22.5374H22.5273H22.5171H22.507H22.4968H22.4867H22.4765H22.4663H22.4561H22.4459H22.4356H22.4254H22.4151H22.4049H22.3946H22.3843H22.374H22.3637H22.3534H22.3431H22.3327H22.3224H22.312H22.3017H22.2913H22.2809H22.2706H22.2602H22.2498H22.2394H22.2289H22.2185H22.2081H22.1976H22.1872H22.1768H22.1663H22.1558H22.1454H22.1349H22.1244H22.114H22.1035H22.093H22.0825H22.072H22.0615H22.051H22.0405H22.03H22.0195H22.0089H21.9984H21.9879H21.9774H21.9669H21.9563H21.9458H21.9353H21.9247H21.9142H21.9037H21.8932H21.8826H21.8721H21.8616H21.851H21.8405H21.83H21.8195H21.8089H21.7984H21.7879H21.7774H21.7669H21.7564H21.7458H21.7353H21.7248H21.7143H21.7038H21.6934H21.6829H21.6724H21.6619H21.6514H21.641H21.6305H21.62H21.6096H21.5991H21.5887H21.5783H21.5679H21.5574H21.547H21.5366H21.5262H21.5158H21.5055H21.4951H21.4847H21.4744H21.464H21.4537H21.4433H21.433H21.4227H21.4124H21.4021H21.3919H21.3816H21.3713H21.3611H21.3508H21.3406H21.3304H21.3202H21.31H21.2999H21.2897H21.2795H21.2694H21.2593H21.2492H21.2391H21.229H21.2189H21.2089H21.1988H21.1888H21.1788H21.1688H21.1588H21.1489H21.1389H21.129H21.1191H21.1092H21.0993H21.0894H21.0796H21.0698H21.0599H21.0502H21.0404H21.0306H21.0209H21.0112H21.0015H20.9918H20.9821H20.9725H20.9629H20.9532H20.9437H20.9341H20.9246H20.915H20.9055H20.8961H20.8866H20.8772H20.8678H20.8584H20.849H20.8397H20.8303H20.821H20.8118H20.8025H20.7933H20.7841H20.7749H20.7658H20.7566H20.7475H20.7384H20.7294H20.7204H20.7114H20.7024H20.6934H20.6845H20.6756H20.6667H20.6579H20.6491H20.6403H20.6315H20.6228H20.6141H20.6054H20.5968H20.5882H20.5796H20.571H20.5625H20.554H20.5455H20.5371H20.5287H20.5203H20.5119H20.5036H20.4953H20.4871H20.4789H20.4707H20.4625H20.4544H20.4463H20.4382H20.4302H20.4222H20.4142H20.4063H20.3984H20.3906H20.3827H20.375H20.3672H20.3595H20.3518H20.3441H20.3365H20.329H20.3214H20.3139H20.3064H20.299H20.2916H20.2843H20.2769H20.2697H20.2624H20.2552H20.248H20.2409H20.2338H20.2268H20.2213C20.2194 47.2342 20.2171 46.8545 20.2156 46.4544C20.2125 45.6247 20.2126 44.7243 20.2247 44.3866L20.225 44.3777V44.3688V42.2938V42.0272L20.0036 41.8786C14.2749 38.035 10.5 31.4076 10.5 25.1188C10.5 19.1443 13.157 13.5639 17.8366 9.83483L17.8366 9.83484L17.8388 9.83304C22.4936 6.07996 28.5879 4.66429 34.542 5.98199L34.5431 5.98224C40.2237 7.22564 45.1211 11.0053 47.6519 16.1157ZM30.4388 23.8688L32.1336 20.9178L32.1341 20.9169C32.7713 19.8019 32.3872 18.3491 31.2519 17.6869L31.2519 17.6869L31.2481 17.6847C30.1331 17.0475 28.6803 17.4316 28.0181 18.5669L28.0166 18.5695L25.3416 23.2195L25.3403 23.2218C24.645 24.4455 24.5619 25.7873 25.2173 26.9193L25.2173 26.9193L25.2202 26.9243C25.8729 28.022 27.0747 28.6438 28.475 28.6438H29.7112L28.0164 31.5948L28.0159 31.5957C27.3803 32.708 27.7609 34.1562 28.8896 34.8207C29.259 35.0533 29.6789 35.1438 30.075 35.1438C30.9048 35.1438 31.6933 34.6976 32.1319 33.9457L32.1334 33.9431L34.8073 29.2951C34.8075 29.2947 34.8077 29.2943 34.8079 29.294C35.5068 28.0911 35.587 26.7233 34.9327 25.5933L34.9327 25.5933L34.9298 25.5883C34.2771 24.4906 33.0753 23.8688 31.675 23.8688H30.4388Z" stroke="black"/>
</g>
</svg>
