<svg width="393" height="380" viewBox="0 0 393 380" fill="none" xmlns="http://www.w3.org/2000/svg">
<rect width="393" height="380" fill="white"/>
<rect x="18" y="18" width="356" height="343" rx="20" fill="#9590CA"/>
<path d="M18.5 59.5H226.75C263.063 59.5 292.5 88.9373 292.5 125.25V125.25C292.5 161.563 263.063 191 226.75 191H206.5C170.878 191 142 219.878 142 255.5V255.5C142 291.122 170.878 320 206.5 320H374" stroke="#BDBADB" stroke-width="6"/>
<rect x="35" y="44" width="72" height="31" rx="15.5" fill="#B7C8A3"/>
<path d="M58.333 65.182C57.7963 65.182 57.2807 65.098 56.786 64.93C56.2913 64.762 55.8597 64.5217 55.491 64.209C55.1223 63.8917 54.8587 63.516 54.7 63.082L56.065 62.571C56.1443 62.795 56.296 62.9957 56.52 63.173C56.7487 63.3457 57.0193 63.481 57.332 63.579C57.6493 63.677 57.983 63.726 58.333 63.726C58.7063 63.726 59.0563 63.6653 59.383 63.544C59.7143 63.4227 59.9803 63.2547 60.181 63.04C60.3863 62.8253 60.489 62.5733 60.489 62.284C60.489 61.9853 60.3817 61.7403 60.167 61.549C59.957 61.3577 59.6863 61.206 59.355 61.094C59.0283 60.982 58.6877 60.898 58.333 60.842C57.647 60.73 57.031 60.5667 56.485 60.352C55.9437 60.1373 55.5143 59.8363 55.197 59.449C54.8843 59.0617 54.728 58.5577 54.728 57.937C54.728 57.3537 54.8937 56.845 55.225 56.411C55.561 55.977 56.002 55.641 56.548 55.403C57.0987 55.1603 57.6937 55.039 58.333 55.039C58.8603 55.039 59.369 55.123 59.859 55.291C60.3537 55.4543 60.7877 55.6947 61.161 56.012C61.539 56.3247 61.8097 56.705 61.973 57.153L60.594 57.65C60.5147 57.4213 60.363 57.223 60.139 57.055C59.915 56.8823 59.6443 56.747 59.327 56.649C59.0143 56.551 58.683 56.502 58.333 56.502C57.9597 56.4973 57.6097 56.558 57.283 56.684C56.961 56.8053 56.6973 56.9733 56.492 57.188C56.2867 57.4027 56.184 57.6523 56.184 57.937C56.184 58.287 56.2797 58.553 56.471 58.735C56.6623 58.917 56.919 59.0523 57.241 59.141C57.5677 59.225 57.9317 59.302 58.333 59.372C58.977 59.4747 59.572 59.645 60.118 59.883C60.6687 60.121 61.1097 60.4383 61.441 60.835C61.777 61.227 61.945 61.71 61.945 62.284C61.945 62.8627 61.777 63.3713 61.441 63.81C61.1097 64.244 60.6687 64.5823 60.118 64.825C59.572 65.063 58.977 65.182 58.333 65.182ZM67.3609 59.456H65.8909L65.8839 65H64.4279L64.4349 59.456H63.3219V58H64.4349L64.4279 55.802H65.8839L65.8909 58H67.3609V59.456ZM74.1761 58H75.6321V65H74.1691L74.1131 63.985C73.9077 64.3443 73.6301 64.6337 73.2801 64.853C72.9301 65.0723 72.5171 65.182 72.0411 65.182C71.5277 65.182 71.0447 65.0863 70.5921 64.895C70.1394 64.699 69.7404 64.4283 69.3951 64.083C69.0544 63.7377 68.7884 63.341 68.5971 62.893C68.4057 62.4403 68.3101 61.955 68.3101 61.437C68.3101 60.9377 68.4034 60.4687 68.5901 60.03C68.7767 59.5867 69.0357 59.1993 69.3671 58.868C69.6984 58.5367 70.0811 58.2777 70.5151 58.091C70.9537 57.8997 71.4227 57.804 71.9221 57.804C72.4307 57.804 72.8787 57.9207 73.2661 58.154C73.6581 58.3827 73.9824 58.6767 74.2391 59.036L74.1761 58ZM72.0061 63.775C72.4167 63.775 72.7761 63.6747 73.0841 63.474C73.3921 63.2687 73.6301 62.9933 73.7981 62.648C73.9707 62.3027 74.0571 61.92 74.0571 61.5C74.0571 61.0753 73.9707 60.6903 73.7981 60.345C73.6254 59.9997 73.3851 59.7267 73.0771 59.526C72.7737 59.3207 72.4167 59.218 72.0061 59.218C71.6001 59.218 71.2291 59.3207 70.8931 59.526C70.5571 59.7313 70.2911 60.0067 70.0951 60.352C69.8991 60.6973 69.8011 61.08 69.8011 61.5C69.8011 61.9247 69.9014 62.3097 70.1021 62.655C70.3074 62.9957 70.5757 63.2687 70.9071 63.474C71.2431 63.6747 71.6094 63.775 72.0061 63.775ZM77.3089 65V58H78.7649V58.742C79.0076 58.4527 79.3062 58.224 79.6609 58.056C80.0156 57.888 80.3982 57.804 80.8089 57.804C81.0702 57.804 81.3292 57.839 81.5859 57.909L81.0049 59.379C80.8229 59.309 80.6409 59.274 80.4589 59.274C80.1509 59.274 79.8686 59.351 79.6119 59.505C79.3552 59.6543 79.1499 59.8573 78.9959 60.114C78.8419 60.3707 78.7649 60.6553 78.7649 60.968V65H77.3089ZM86.5486 59.456H85.0786L85.0716 65H83.6156L83.6226 59.456H82.5096V58H83.6226L83.6156 55.802H85.0716L85.0786 58H86.5486V59.456Z" fill="black"/>
<rect x="135" y="44" width="105" height="31" rx="15.5" fill="#B7C8A3"/>
<rect x="215" y="121" width="134" height="31" rx="15.5" fill="#E1BF7D"/>
<path d="M159.383 65.182C158.702 65.182 158.067 65.0513 157.479 64.79C156.896 64.524 156.385 64.1577 155.946 63.691C155.512 63.2197 155.171 62.676 154.924 62.06C154.681 61.444 154.56 60.7883 154.56 60.093C154.56 59.3603 154.691 58.686 154.952 58.07C155.213 57.454 155.57 56.9197 156.023 56.467C156.476 56.0097 156.991 55.655 157.57 55.403C158.153 55.151 158.765 55.025 159.404 55.025C160.127 55.025 160.823 55.193 161.49 55.529C162.157 55.865 162.738 56.369 163.233 57.041L161.931 57.748C161.595 57.328 161.203 57.0107 160.755 56.796C160.312 56.5813 159.857 56.474 159.39 56.474C158.937 56.474 158.508 56.5673 158.102 56.754C157.696 56.936 157.337 57.1927 157.024 57.524C156.711 57.8507 156.464 58.2357 156.282 58.679C156.105 59.1177 156.016 59.596 156.016 60.114C156.016 60.6133 156.102 61.0823 156.275 61.521C156.452 61.9597 156.695 62.3447 157.003 62.676C157.316 63.0027 157.675 63.2593 158.081 63.446C158.492 63.6327 158.93 63.726 159.397 63.726C159.742 63.726 160.074 63.67 160.391 63.558C160.708 63.446 161.002 63.2873 161.273 63.082C161.548 62.872 161.789 62.6223 161.994 62.333C162.199 62.0437 162.363 61.7217 162.484 61.367H160.405V60.079H164.192C164.201 60.779 164.08 61.437 163.828 62.053C163.581 62.669 163.235 63.2127 162.792 63.684C162.353 64.1507 161.842 64.517 161.259 64.783C160.676 65.049 160.05 65.182 159.383 65.182ZM165.811 65V58H167.267V58.742C167.51 58.4527 167.809 58.224 168.163 58.056C168.518 57.888 168.901 57.804 169.311 57.804C169.573 57.804 169.832 57.839 170.088 57.909L169.507 59.379C169.325 59.309 169.143 59.274 168.961 59.274C168.653 59.274 168.371 59.351 168.114 59.505C167.858 59.6543 167.652 59.8573 167.498 60.114C167.344 60.3707 167.267 60.6553 167.267 60.968V65H165.811ZM173.929 65.182C173.285 65.182 172.697 65.0163 172.165 64.685C171.638 64.3537 171.216 63.9103 170.898 63.355C170.586 62.795 170.429 62.1767 170.429 61.5C170.429 60.9867 170.52 60.5083 170.702 60.065C170.884 59.617 171.134 59.225 171.451 58.889C171.773 58.5483 172.147 58.2823 172.571 58.091C172.996 57.8997 173.449 57.804 173.929 57.804C174.573 57.804 175.159 57.9697 175.686 58.301C176.218 58.6323 176.641 59.078 176.953 59.638C177.271 60.198 177.429 60.8187 177.429 61.5C177.429 62.0087 177.338 62.4847 177.156 62.928C176.974 63.3713 176.722 63.7633 176.4 64.104C176.083 64.44 175.712 64.7037 175.287 64.895C174.867 65.0863 174.415 65.182 173.929 65.182ZM173.929 63.726C174.317 63.726 174.664 63.6233 174.972 63.418C175.28 63.2127 175.523 62.942 175.7 62.606C175.882 62.2653 175.973 61.8967 175.973 61.5C175.973 61.094 175.88 60.7207 175.693 60.38C175.511 60.0393 175.266 59.7687 174.958 59.568C174.65 59.3627 174.307 59.26 173.929 59.26C173.547 59.26 173.199 59.3627 172.886 59.568C172.578 59.7733 172.333 60.0463 172.151 60.387C171.974 60.7277 171.885 61.0987 171.885 61.5C171.885 61.9153 171.979 62.291 172.165 62.627C172.352 62.963 172.599 63.2313 172.907 63.432C173.22 63.628 173.561 63.726 173.929 63.726ZM178.423 62.375V58H179.879V62.018C179.879 62.3307 179.956 62.6153 180.11 62.872C180.264 63.1287 180.47 63.334 180.726 63.488C180.983 63.6373 181.265 63.712 181.573 63.712C181.886 63.712 182.168 63.6373 182.42 63.488C182.677 63.334 182.88 63.1287 183.029 62.872C183.183 62.6153 183.26 62.3307 183.26 62.018V58H184.716L184.723 65H183.267L183.26 64.244C183.022 64.5333 182.726 64.762 182.371 64.93C182.017 65.098 181.636 65.182 181.23 65.182C180.712 65.182 180.241 65.056 179.816 64.804C179.392 64.552 179.053 64.2137 178.801 63.789C178.549 63.3643 178.423 62.893 178.423 62.375ZM187.604 68.5H186.148V58H187.604V59.029C187.837 58.6697 188.136 58.378 188.5 58.154C188.864 57.93 189.293 57.818 189.788 57.818C190.296 57.818 190.772 57.9137 191.216 58.105C191.664 58.2963 192.056 58.5623 192.392 58.903C192.728 59.239 192.991 59.6287 193.183 60.072C193.374 60.5153 193.47 60.9913 193.47 61.5C193.47 62.0087 193.374 62.487 193.183 62.935C192.991 63.383 192.728 63.7773 192.392 64.118C192.056 64.454 191.664 64.7177 191.216 64.909C190.772 65.1003 190.296 65.196 189.788 65.196C189.293 65.196 188.864 65.084 188.5 64.86C188.136 64.6313 187.837 64.3397 187.604 63.985V68.5ZM189.774 59.225C189.368 59.225 189.011 59.3277 188.703 59.533C188.395 59.7383 188.154 60.0137 187.982 60.359C187.809 60.6997 187.723 61.08 187.723 61.5C187.723 61.92 187.809 62.3027 187.982 62.648C188.154 62.9933 188.395 63.2687 188.703 63.474C189.011 63.6793 189.368 63.782 189.774 63.782C190.175 63.782 190.544 63.6817 190.88 63.481C191.216 63.2757 191.484 63.0003 191.685 62.655C191.885 62.3097 191.986 61.9247 191.986 61.5C191.986 61.0847 191.885 60.7043 191.685 60.359C191.489 60.0137 191.223 59.7383 190.887 59.533C190.551 59.3277 190.18 59.225 189.774 59.225ZM198.867 65V55.2H200.323V65H198.867ZM208.791 60.611V65H207.335V60.968C207.335 60.6553 207.258 60.3707 207.104 60.114C206.955 59.8573 206.752 59.6543 206.495 59.505C206.243 59.351 205.959 59.274 205.641 59.274C205.333 59.274 205.051 59.351 204.794 59.505C204.538 59.6543 204.332 59.8573 204.178 60.114C204.024 60.3707 203.947 60.6553 203.947 60.968V65H202.491V58H203.947V58.742C204.19 58.4527 204.489 58.224 204.843 58.056C205.198 57.888 205.581 57.804 205.991 57.804C206.509 57.804 206.981 57.93 207.405 58.182C207.83 58.434 208.166 58.7723 208.413 59.197C208.665 59.6217 208.791 60.093 208.791 60.611ZM212.268 56.411V58H214.242V59.456H212.268V65H210.812V59.456H209.979V58H210.812V56.411C210.812 56.0283 210.905 55.6807 211.092 55.368C211.278 55.0507 211.528 54.7987 211.841 54.612C212.158 54.4253 212.51 54.332 212.898 54.332C213.178 54.332 213.451 54.388 213.717 54.5C213.983 54.612 214.221 54.7847 214.431 55.018L213.388 56.047C213.336 55.963 213.264 55.9 213.171 55.858C213.082 55.8113 212.991 55.788 212.898 55.788C212.725 55.788 212.576 55.8487 212.45 55.97C212.328 56.0913 212.268 56.2383 212.268 56.411ZM218.586 65.182C217.942 65.182 217.354 65.0163 216.822 64.685C216.295 64.3537 215.873 63.9103 215.555 63.355C215.243 62.795 215.086 62.1767 215.086 61.5C215.086 60.9867 215.177 60.5083 215.359 60.065C215.541 59.617 215.791 59.225 216.108 58.889C216.43 58.5483 216.804 58.2823 217.228 58.091C217.653 57.8997 218.106 57.804 218.586 57.804C219.23 57.804 219.816 57.9697 220.343 58.301C220.875 58.6323 221.298 59.078 221.61 59.638C221.928 60.198 222.086 60.8187 222.086 61.5C222.086 62.0087 221.995 62.4847 221.813 62.928C221.631 63.3713 221.379 63.7633 221.057 64.104C220.74 64.44 220.369 64.7037 219.944 64.895C219.524 65.0863 219.072 65.182 218.586 65.182ZM218.586 63.726C218.974 63.726 219.321 63.6233 219.629 63.418C219.937 63.2127 220.18 62.942 220.357 62.606C220.539 62.2653 220.63 61.8967 220.63 61.5C220.63 61.094 220.537 60.7207 220.35 60.38C220.168 60.0393 219.923 59.7687 219.615 59.568C219.307 59.3627 218.964 59.26 218.586 59.26C218.204 59.26 217.856 59.3627 217.543 59.568C217.235 59.7733 216.99 60.0463 216.808 60.387C216.631 60.7277 216.542 61.0987 216.542 61.5C216.542 61.9153 216.636 62.291 216.822 62.627C217.009 62.963 217.256 63.2313 217.564 63.432C217.877 63.628 218.218 63.726 218.586 63.726Z" fill="black"/>
<path d="M238.376 142.182C237.713 142.182 237.09 142.051 236.507 141.79C235.924 141.524 235.41 141.16 234.967 140.698C234.528 140.231 234.183 139.69 233.931 139.074C233.684 138.458 233.56 137.8 233.56 137.1C233.56 136.4 233.684 135.742 233.931 135.126C234.183 134.51 234.528 133.971 234.967 133.509C235.41 133.042 235.924 132.678 236.507 132.417C237.09 132.151 237.713 132.018 238.376 132.018C239.169 132.018 239.9 132.202 240.567 132.571C241.234 132.94 241.787 133.43 242.226 134.041L240.931 134.734C240.628 134.351 240.252 134.046 239.804 133.817C239.356 133.588 238.88 133.474 238.376 133.474C237.909 133.474 237.473 133.57 237.067 133.761C236.661 133.952 236.304 134.214 235.996 134.545C235.688 134.876 235.448 135.261 235.275 135.7C235.102 136.139 235.016 136.605 235.016 137.1C235.016 137.599 235.102 138.068 235.275 138.507C235.448 138.941 235.688 139.326 235.996 139.662C236.309 139.993 236.668 140.255 237.074 140.446C237.48 140.633 237.914 140.726 238.376 140.726C238.889 140.726 239.368 140.612 239.811 140.383C240.259 140.15 240.632 139.842 240.931 139.459L242.226 140.166C241.787 140.777 241.234 141.267 240.567 141.636C239.9 142 239.169 142.182 238.376 142.182ZM246.579 142.182C245.935 142.182 245.347 142.016 244.815 141.685C244.288 141.354 243.865 140.91 243.548 140.355C243.235 139.795 243.079 139.177 243.079 138.5C243.079 137.987 243.17 137.508 243.352 137.065C243.534 136.617 243.784 136.225 244.101 135.889C244.423 135.548 244.796 135.282 245.221 135.091C245.646 134.9 246.098 134.804 246.579 134.804C247.116 134.804 247.608 134.916 248.056 135.14C248.504 135.359 248.887 135.665 249.204 136.057C249.521 136.444 249.755 136.892 249.904 137.401C250.053 137.905 250.098 138.442 250.037 139.011H244.64C244.701 139.333 244.817 139.625 244.99 139.886C245.167 140.143 245.391 140.346 245.662 140.495C245.937 140.644 246.243 140.721 246.579 140.726C246.934 140.726 247.256 140.637 247.545 140.46C247.839 140.283 248.079 140.038 248.266 139.725L249.743 140.068C249.463 140.689 249.041 141.197 248.476 141.594C247.911 141.986 247.279 142.182 246.579 142.182ZM244.591 137.898H248.567C248.52 137.562 248.401 137.259 248.21 136.988C248.023 136.713 247.788 136.496 247.503 136.337C247.223 136.174 246.915 136.092 246.579 136.092C246.248 136.092 245.94 136.171 245.655 136.33C245.375 136.489 245.142 136.706 244.955 136.981C244.773 137.252 244.652 137.557 244.591 137.898ZM257.776 137.611V142H256.32V137.968C256.32 137.655 256.243 137.371 256.089 137.114C255.94 136.857 255.737 136.654 255.48 136.505C255.228 136.351 254.944 136.274 254.626 136.274C254.318 136.274 254.036 136.351 253.779 136.505C253.523 136.654 253.317 136.857 253.163 137.114C253.009 137.371 252.932 137.655 252.932 137.968V142H251.476V135H252.932V135.742C253.175 135.453 253.474 135.224 253.828 135.056C254.183 134.888 254.566 134.804 254.976 134.804C255.494 134.804 255.966 134.93 256.39 135.182C256.815 135.434 257.151 135.772 257.398 136.197C257.65 136.622 257.776 137.093 257.776 137.611ZM261.553 142.133C261.185 142.11 260.825 142.035 260.475 141.909C260.125 141.783 259.817 141.613 259.551 141.398C259.29 141.179 259.094 140.922 258.963 140.628L260.202 140.096C260.263 140.222 260.368 140.346 260.517 140.467C260.671 140.588 260.851 140.689 261.056 140.768C261.262 140.843 261.476 140.88 261.7 140.88C261.92 140.88 262.123 140.85 262.309 140.789C262.501 140.724 262.657 140.626 262.778 140.495C262.9 140.364 262.96 140.208 262.96 140.026C262.96 139.821 262.89 139.662 262.75 139.55C262.615 139.433 262.445 139.345 262.239 139.284C262.034 139.223 261.829 139.165 261.623 139.109C261.166 139.006 260.746 138.866 260.363 138.689C259.985 138.507 259.684 138.276 259.46 137.996C259.236 137.711 259.124 137.364 259.124 136.953C259.124 136.505 259.246 136.118 259.488 135.791C259.731 135.46 260.048 135.205 260.44 135.028C260.837 134.851 261.259 134.762 261.707 134.762C262.267 134.762 262.781 134.881 263.247 135.119C263.714 135.357 264.071 135.684 264.318 136.099L263.163 136.785C263.093 136.645 262.988 136.519 262.848 136.407C262.708 136.295 262.55 136.206 262.372 136.141C262.195 136.071 262.011 136.031 261.819 136.022C261.581 136.013 261.36 136.041 261.154 136.106C260.954 136.167 260.793 136.265 260.671 136.4C260.55 136.535 260.489 136.708 260.489 136.918C260.489 137.123 260.562 137.277 260.706 137.38C260.851 137.478 261.033 137.557 261.252 137.618C261.476 137.679 261.705 137.746 261.938 137.821C262.354 137.952 262.743 138.113 263.107 138.304C263.471 138.491 263.765 138.722 263.989 138.997C264.213 139.272 264.321 139.608 264.311 140.005C264.311 140.444 264.178 140.829 263.912 141.16C263.651 141.491 263.31 141.743 262.89 141.916C262.47 142.089 262.025 142.161 261.553 142.133ZM265.51 139.375V135H266.966V139.018C266.966 139.331 267.043 139.615 267.197 139.872C267.351 140.129 267.556 140.334 267.813 140.488C268.07 140.637 268.352 140.712 268.66 140.712C268.973 140.712 269.255 140.637 269.507 140.488C269.764 140.334 269.967 140.129 270.116 139.872C270.27 139.615 270.347 139.331 270.347 139.018V135H271.803L271.81 142H270.354L270.347 141.244C270.109 141.533 269.813 141.762 269.458 141.93C269.103 142.098 268.723 142.182 268.317 142.182C267.799 142.182 267.328 142.056 266.903 141.804C266.478 141.552 266.14 141.214 265.888 140.789C265.636 140.364 265.51 139.893 265.51 139.375ZM275.594 142.133C275.225 142.11 274.866 142.035 274.516 141.909C274.166 141.783 273.858 141.613 273.592 141.398C273.331 141.179 273.135 140.922 273.004 140.628L274.243 140.096C274.304 140.222 274.409 140.346 274.558 140.467C274.712 140.588 274.892 140.689 275.097 140.768C275.302 140.843 275.517 140.88 275.741 140.88C275.96 140.88 276.163 140.85 276.35 140.789C276.541 140.724 276.698 140.626 276.819 140.495C276.94 140.364 277.001 140.208 277.001 140.026C277.001 139.821 276.931 139.662 276.791 139.55C276.656 139.433 276.485 139.345 276.28 139.284C276.075 139.223 275.869 139.165 275.664 139.109C275.207 139.006 274.787 138.866 274.404 138.689C274.026 138.507 273.725 138.276 273.501 137.996C273.277 137.711 273.165 137.364 273.165 136.953C273.165 136.505 273.286 136.118 273.529 135.791C273.772 135.46 274.089 135.205 274.481 135.028C274.878 134.851 275.3 134.762 275.748 134.762C276.308 134.762 276.821 134.881 277.288 135.119C277.755 135.357 278.112 135.684 278.359 136.099L277.204 136.785C277.134 136.645 277.029 136.519 276.889 136.407C276.749 136.295 276.59 136.206 276.413 136.141C276.236 136.071 276.051 136.031 275.86 136.022C275.622 136.013 275.4 136.041 275.195 136.106C274.994 136.167 274.833 136.265 274.712 136.4C274.591 136.535 274.53 136.708 274.53 136.918C274.53 137.123 274.602 137.277 274.747 137.38C274.892 137.478 275.074 137.557 275.293 137.618C275.517 137.679 275.746 137.746 275.979 137.821C276.394 137.952 276.784 138.113 277.148 138.304C277.512 138.491 277.806 138.722 278.03 138.997C278.254 139.272 278.361 139.608 278.352 140.005C278.352 140.444 278.219 140.829 277.953 141.16C277.692 141.491 277.351 141.743 276.931 141.916C276.511 142.089 276.065 142.161 275.594 142.133ZM287.352 142.182C286.568 142.182 285.884 141.991 285.301 141.608C284.722 141.225 284.272 140.712 283.95 140.068C283.632 139.419 283.474 138.701 283.474 137.912V132.2H284.93V137.912C284.93 138.425 285.023 138.897 285.21 139.326C285.401 139.751 285.676 140.091 286.036 140.348C286.4 140.6 286.838 140.726 287.352 140.726C287.879 140.726 288.322 140.6 288.682 140.348C289.041 140.091 289.312 139.751 289.494 139.326C289.68 138.897 289.774 138.425 289.774 137.912V132.2H291.23V137.912C291.23 138.505 291.139 139.06 290.957 139.578C290.775 140.091 290.513 140.544 290.173 140.936C289.832 141.328 289.424 141.634 288.948 141.853C288.472 142.072 287.94 142.182 287.352 142.182ZM294.643 145.5H293.187V135H294.643V136.029C294.877 135.67 295.175 135.378 295.539 135.154C295.903 134.93 296.333 134.818 296.827 134.818C297.336 134.818 297.812 134.914 298.255 135.105C298.703 135.296 299.095 135.562 299.431 135.903C299.767 136.239 300.031 136.629 300.222 137.072C300.414 137.515 300.509 137.991 300.509 138.5C300.509 139.009 300.414 139.487 300.222 139.935C300.031 140.383 299.767 140.777 299.431 141.118C299.095 141.454 298.703 141.718 298.255 141.909C297.812 142.1 297.336 142.196 296.827 142.196C296.333 142.196 295.903 142.084 295.539 141.86C295.175 141.631 294.877 141.34 294.643 140.985V145.5ZM296.813 136.225C296.407 136.225 296.05 136.328 295.742 136.533C295.434 136.738 295.194 137.014 295.021 137.359C294.849 137.7 294.762 138.08 294.762 138.5C294.762 138.92 294.849 139.303 295.021 139.648C295.194 139.993 295.434 140.269 295.742 140.474C296.05 140.679 296.407 140.782 296.813 140.782C297.215 140.782 297.583 140.682 297.919 140.481C298.255 140.276 298.524 140 298.724 139.655C298.925 139.31 299.025 138.925 299.025 138.5C299.025 138.085 298.925 137.704 298.724 137.359C298.528 137.014 298.262 136.738 297.926 136.533C297.59 136.328 297.219 136.225 296.813 136.225ZM301.835 142V131.5H303.291V142H301.835ZM308.23 142.182C307.586 142.182 306.998 142.016 306.466 141.685C305.938 141.354 305.516 140.91 305.199 140.355C304.886 139.795 304.73 139.177 304.73 138.5C304.73 137.987 304.821 137.508 305.003 137.065C305.185 136.617 305.434 136.225 305.752 135.889C306.074 135.548 306.447 135.282 306.872 135.091C307.296 134.9 307.749 134.804 308.23 134.804C308.874 134.804 309.459 134.97 309.987 135.301C310.519 135.632 310.941 136.078 311.254 136.638C311.571 137.198 311.73 137.819 311.73 138.5C311.73 139.009 311.639 139.485 311.457 139.928C311.275 140.371 311.023 140.763 310.701 141.104C310.383 141.44 310.012 141.704 309.588 141.895C309.168 142.086 308.715 142.182 308.23 142.182ZM308.23 140.726C308.617 140.726 308.965 140.623 309.273 140.418C309.581 140.213 309.823 139.942 310.001 139.606C310.183 139.265 310.274 138.897 310.274 138.5C310.274 138.094 310.18 137.721 309.994 137.38C309.812 137.039 309.567 136.769 309.259 136.568C308.951 136.363 308.608 136.26 308.23 136.26C307.847 136.26 307.499 136.363 307.187 136.568C306.879 136.773 306.634 137.046 306.452 137.387C306.274 137.728 306.186 138.099 306.186 138.5C306.186 138.915 306.279 139.291 306.466 139.627C306.652 139.963 306.9 140.231 307.208 140.432C307.52 140.628 307.861 140.726 308.23 140.726ZM318.573 135H320.029V142H318.566L318.51 140.985C318.305 141.344 318.027 141.634 317.677 141.853C317.327 142.072 316.914 142.182 316.438 142.182C315.925 142.182 315.442 142.086 314.989 141.895C314.536 141.699 314.137 141.428 313.792 141.083C313.451 140.738 313.185 140.341 312.994 139.893C312.803 139.44 312.707 138.955 312.707 138.437C312.707 137.938 312.8 137.469 312.987 137.03C313.174 136.587 313.433 136.199 313.764 135.868C314.095 135.537 314.478 135.278 314.912 135.091C315.351 134.9 315.82 134.804 316.319 134.804C316.828 134.804 317.276 134.921 317.663 135.154C318.055 135.383 318.379 135.677 318.636 136.036L318.573 135ZM316.403 140.775C316.814 140.775 317.173 140.675 317.481 140.474C317.789 140.269 318.027 139.993 318.195 139.648C318.368 139.303 318.454 138.92 318.454 138.5C318.454 138.075 318.368 137.69 318.195 137.345C318.022 137 317.782 136.727 317.474 136.526C317.171 136.321 316.814 136.218 316.403 136.218C315.997 136.218 315.626 136.321 315.29 136.526C314.954 136.731 314.688 137.007 314.492 137.352C314.296 137.697 314.198 138.08 314.198 138.5C314.198 138.925 314.298 139.31 314.499 139.655C314.704 139.996 314.973 140.269 315.304 140.474C315.64 140.675 316.006 140.775 316.403 140.775ZM327.022 131.5H328.478V142H327.022V140.971C326.793 141.335 326.495 141.629 326.126 141.853C325.757 142.072 325.326 142.182 324.831 142.182C324.322 142.182 323.846 142.086 323.403 141.895C322.96 141.704 322.568 141.44 322.227 141.104C321.891 140.763 321.627 140.371 321.436 139.928C321.245 139.485 321.149 139.009 321.149 138.5C321.149 137.991 321.245 137.515 321.436 137.072C321.627 136.624 321.891 136.232 322.227 135.896C322.568 135.555 322.96 135.289 323.403 135.098C323.846 134.907 324.322 134.811 324.831 134.811C325.326 134.811 325.757 134.923 326.126 135.147C326.495 135.366 326.793 135.656 327.022 136.015V131.5ZM324.845 140.775C325.256 140.775 325.615 140.675 325.923 140.474C326.231 140.269 326.469 139.993 326.637 139.648C326.81 139.303 326.896 138.92 326.896 138.5C326.896 138.075 326.81 137.69 326.637 137.345C326.464 137 326.224 136.727 325.916 136.526C325.613 136.321 325.256 136.218 324.845 136.218C324.439 136.218 324.068 136.321 323.732 136.526C323.401 136.731 323.135 137.007 322.934 137.352C322.738 137.697 322.64 138.08 322.64 138.5C322.64 138.925 322.74 139.31 322.941 139.655C323.146 139.996 323.415 140.269 323.746 140.474C324.082 140.675 324.448 140.775 324.845 140.775Z" fill="black"/>
<rect x="80" y="238" width="134" height="31" rx="15.5" fill="#EF7B7B"/>
<path d="M106.84 259V249.2H110.214C110.741 249.2 111.217 249.331 111.642 249.592C112.071 249.853 112.412 250.206 112.664 250.649C112.921 251.092 113.049 251.582 113.049 252.119C113.049 252.665 112.918 253.16 112.657 253.603C112.4 254.042 112.057 254.392 111.628 254.653C111.199 254.914 110.727 255.045 110.214 255.045H108.296V259H106.84ZM108.296 253.589H110.067C110.347 253.589 110.601 253.519 110.83 253.379C111.063 253.239 111.248 253.052 111.383 252.819C111.523 252.586 111.593 252.322 111.593 252.028C111.593 251.734 111.523 251.47 111.383 251.237C111.248 250.999 111.063 250.812 110.83 250.677C110.601 250.537 110.347 250.467 110.067 250.467H108.296V253.589ZM114.667 259V248.5H116.123V259H114.667ZM123.428 252H124.884V259H123.421L123.365 257.985C123.16 258.344 122.882 258.634 122.532 258.853C122.182 259.072 121.769 259.182 121.293 259.182C120.78 259.182 120.297 259.086 119.844 258.895C119.391 258.699 118.992 258.428 118.647 258.083C118.306 257.738 118.04 257.341 117.849 256.893C117.658 256.44 117.562 255.955 117.562 255.437C117.562 254.938 117.655 254.469 117.842 254.03C118.029 253.587 118.288 253.199 118.619 252.868C118.95 252.537 119.333 252.278 119.767 252.091C120.206 251.9 120.675 251.804 121.174 251.804C121.683 251.804 122.131 251.921 122.518 252.154C122.91 252.383 123.234 252.677 123.491 253.036L123.428 252ZM121.258 257.775C121.669 257.775 122.028 257.675 122.336 257.474C122.644 257.269 122.882 256.993 123.05 256.648C123.223 256.303 123.309 255.92 123.309 255.5C123.309 255.075 123.223 254.69 123.05 254.345C122.877 254 122.637 253.727 122.329 253.526C122.026 253.321 121.669 253.218 121.258 253.218C120.852 253.218 120.481 253.321 120.145 253.526C119.809 253.731 119.543 254.007 119.347 254.352C119.151 254.697 119.053 255.08 119.053 255.5C119.053 255.925 119.153 256.31 119.354 256.655C119.559 256.996 119.828 257.269 120.159 257.474C120.495 257.675 120.861 257.775 121.258 257.775ZM132.861 254.611V259H131.405V254.968C131.405 254.655 131.328 254.371 131.174 254.114C131.025 253.857 130.822 253.654 130.565 253.505C130.313 253.351 130.028 253.274 129.711 253.274C129.403 253.274 129.121 253.351 128.864 253.505C128.607 253.654 128.402 253.857 128.248 254.114C128.094 254.371 128.017 254.655 128.017 254.968V259H126.561V252H128.017V252.742C128.26 252.453 128.558 252.224 128.913 252.056C129.268 251.888 129.65 251.804 130.061 251.804C130.579 251.804 131.05 251.93 131.475 252.182C131.9 252.434 132.236 252.772 132.483 253.197C132.735 253.622 132.861 254.093 132.861 254.611ZM141.674 259.182C141.138 259.182 140.622 259.098 140.127 258.93C139.633 258.762 139.201 258.522 138.832 258.209C138.464 257.892 138.2 257.516 138.041 257.082L139.406 256.571C139.486 256.795 139.637 256.996 139.861 257.173C140.09 257.346 140.361 257.481 140.673 257.579C140.991 257.677 141.324 257.726 141.674 257.726C142.048 257.726 142.398 257.665 142.724 257.544C143.056 257.423 143.322 257.255 143.522 257.04C143.728 256.825 143.83 256.573 143.83 256.284C143.83 255.985 143.723 255.74 143.508 255.549C143.298 255.358 143.028 255.206 142.696 255.094C142.37 254.982 142.029 254.898 141.674 254.842C140.988 254.73 140.372 254.567 139.826 254.352C139.285 254.137 138.856 253.836 138.538 253.449C138.226 253.062 138.069 252.558 138.069 251.937C138.069 251.354 138.235 250.845 138.566 250.411C138.902 249.977 139.343 249.641 139.889 249.403C140.44 249.16 141.035 249.039 141.674 249.039C142.202 249.039 142.71 249.123 143.2 249.291C143.695 249.454 144.129 249.695 144.502 250.012C144.88 250.325 145.151 250.705 145.314 251.153L143.935 251.65C143.856 251.421 143.704 251.223 143.48 251.055C143.256 250.882 142.986 250.747 142.668 250.649C142.356 250.551 142.024 250.502 141.674 250.502C141.301 250.497 140.951 250.558 140.624 250.684C140.302 250.805 140.039 250.973 139.833 251.188C139.628 251.403 139.525 251.652 139.525 251.937C139.525 252.287 139.621 252.553 139.812 252.735C140.004 252.917 140.26 253.052 140.582 253.141C140.909 253.225 141.273 253.302 141.674 253.372C142.318 253.475 142.913 253.645 143.459 253.883C144.01 254.121 144.451 254.438 144.782 254.835C145.118 255.227 145.286 255.71 145.286 256.284C145.286 256.863 145.118 257.371 144.782 257.81C144.451 258.244 144.01 258.582 143.459 258.825C142.913 259.063 142.318 259.182 141.674 259.182ZM150.032 259.182C149.388 259.182 148.8 259.016 148.268 258.685C147.74 258.354 147.318 257.91 147.001 257.355C146.688 256.795 146.532 256.177 146.532 255.5C146.532 254.987 146.623 254.508 146.805 254.065C146.987 253.617 147.236 253.225 147.554 252.889C147.876 252.548 148.249 252.282 148.674 252.091C149.098 251.9 149.551 251.804 150.032 251.804C150.568 251.804 151.061 251.916 151.509 252.14C151.957 252.359 152.339 252.665 152.657 253.057C152.974 253.444 153.207 253.892 153.357 254.401C153.506 254.905 153.55 255.442 153.49 256.011H148.093C148.153 256.333 148.27 256.625 148.443 256.886C148.62 257.143 148.844 257.346 149.115 257.495C149.39 257.644 149.696 257.721 150.032 257.726C150.386 257.726 150.708 257.637 150.998 257.46C151.292 257.283 151.532 257.038 151.719 256.725L153.196 257.068C152.916 257.689 152.493 258.197 151.929 258.594C151.364 258.986 150.732 259.182 150.032 259.182ZM148.044 254.898H152.02C151.973 254.562 151.854 254.259 151.663 253.988C151.476 253.713 151.24 253.496 150.956 253.337C150.676 253.174 150.368 253.092 150.032 253.092C149.7 253.092 149.392 253.171 149.108 253.33C148.828 253.489 148.594 253.706 148.408 253.981C148.226 254.252 148.104 254.557 148.044 254.898ZM154.833 259V248.5H156.289V259H154.833ZM161.228 259.182C160.584 259.182 159.996 259.016 159.464 258.685C158.937 258.354 158.515 257.91 158.197 257.355C157.885 256.795 157.728 256.177 157.728 255.5C157.728 254.987 157.819 254.508 158.001 254.065C158.183 253.617 158.433 253.225 158.75 252.889C159.072 252.548 159.446 252.282 159.87 252.091C160.295 251.9 160.748 251.804 161.228 251.804C161.765 251.804 162.257 251.916 162.705 252.14C163.153 252.359 163.536 252.665 163.853 253.057C164.171 253.444 164.404 253.892 164.553 254.401C164.703 254.905 164.747 255.442 164.686 256.011H159.289C159.35 256.333 159.467 256.625 159.639 256.886C159.817 257.143 160.041 257.346 160.311 257.495C160.587 257.644 160.892 257.721 161.228 257.726C161.583 257.726 161.905 257.637 162.194 257.46C162.488 257.283 162.729 257.038 162.915 256.725L164.392 257.068C164.112 257.689 163.69 258.197 163.125 258.594C162.561 258.986 161.928 259.182 161.228 259.182ZM159.24 254.898H163.216C163.17 254.562 163.051 254.259 162.859 253.988C162.673 253.713 162.437 253.496 162.152 253.337C161.872 253.174 161.564 253.092 161.228 253.092C160.897 253.092 160.589 253.171 160.304 253.33C160.024 253.489 159.791 253.706 159.604 253.981C159.422 254.252 159.301 254.557 159.24 254.898ZM170.683 257.012L171.985 257.719C171.668 258.162 171.264 258.517 170.774 258.783C170.289 259.049 169.761 259.182 169.192 259.182C168.548 259.182 167.96 259.016 167.428 258.685C166.901 258.354 166.478 257.91 166.161 257.355C165.848 256.795 165.692 256.177 165.692 255.5C165.692 254.987 165.783 254.508 165.965 254.065C166.147 253.617 166.397 253.225 166.714 252.889C167.036 252.548 167.409 252.282 167.834 252.091C168.259 251.9 168.711 251.804 169.192 251.804C169.761 251.804 170.289 251.937 170.774 252.203C171.264 252.469 171.668 252.826 171.985 253.274L170.683 253.981C170.487 253.748 170.258 253.57 169.997 253.449C169.736 253.323 169.467 253.26 169.192 253.26C168.809 253.26 168.462 253.365 168.149 253.575C167.841 253.78 167.596 254.053 167.414 254.394C167.237 254.73 167.148 255.099 167.148 255.5C167.148 255.897 167.239 256.265 167.421 256.606C167.603 256.942 167.848 257.213 168.156 257.418C168.469 257.623 168.814 257.726 169.192 257.726C169.481 257.726 169.757 257.661 170.018 257.53C170.279 257.399 170.501 257.227 170.683 257.012ZM177.225 253.456H175.755L175.748 259H174.292L174.299 253.456H173.186V252H174.299L174.292 249.802H175.748L175.755 252H177.225V253.456ZM178.662 252H180.118V259H178.662V252ZM179.404 250.985C179.18 250.985 178.994 250.913 178.844 250.768C178.695 250.623 178.62 250.441 178.62 250.222C178.62 250.007 178.695 249.828 178.844 249.683C178.994 249.534 179.178 249.459 179.397 249.459C179.612 249.459 179.794 249.534 179.943 249.683C180.093 249.828 180.167 250.007 180.167 250.222C180.167 250.441 180.093 250.623 179.943 250.768C179.799 250.913 179.619 250.985 179.404 250.985ZM185.03 259.182C184.386 259.182 183.798 259.016 183.266 258.685C182.739 258.354 182.316 257.91 181.999 257.355C181.686 256.795 181.53 256.177 181.53 255.5C181.53 254.987 181.621 254.508 181.803 254.065C181.985 253.617 182.235 253.225 182.552 252.889C182.874 252.548 183.247 252.282 183.672 252.091C184.097 251.9 184.549 251.804 185.03 251.804C185.674 251.804 186.26 251.97 186.787 252.301C187.319 252.632 187.741 253.078 188.054 253.638C188.371 254.198 188.53 254.819 188.53 255.5C188.53 256.009 188.439 256.485 188.257 256.928C188.075 257.371 187.823 257.763 187.501 258.104C187.184 258.44 186.813 258.704 186.388 258.895C185.968 259.086 185.515 259.182 185.03 259.182ZM185.03 257.726C185.417 257.726 185.765 257.623 186.073 257.418C186.381 257.213 186.624 256.942 186.801 256.606C186.983 256.265 187.074 255.897 187.074 255.5C187.074 255.094 186.981 254.721 186.794 254.38C186.612 254.039 186.367 253.769 186.059 253.568C185.751 253.363 185.408 253.26 185.03 253.26C184.647 253.26 184.3 253.363 183.987 253.568C183.679 253.773 183.434 254.046 183.252 254.387C183.075 254.728 182.986 255.099 182.986 255.5C182.986 255.915 183.079 256.291 183.266 256.627C183.453 256.963 183.7 257.231 184.008 257.432C184.321 257.628 184.661 257.726 185.03 257.726ZM196.241 254.611V259H194.785V254.968C194.785 254.655 194.708 254.371 194.554 254.114C194.405 253.857 194.202 253.654 193.945 253.505C193.693 253.351 193.408 253.274 193.091 253.274C192.783 253.274 192.501 253.351 192.244 253.505C191.987 253.654 191.782 253.857 191.628 254.114C191.474 254.371 191.397 254.655 191.397 254.968V259H189.941V252H191.397V252.742C191.64 252.453 191.938 252.224 192.293 252.056C192.648 251.888 193.03 251.804 193.441 251.804C193.959 251.804 194.43 251.93 194.855 252.182C195.28 252.434 195.616 252.772 195.863 253.197C196.115 253.622 196.241 254.093 196.241 254.611Z" fill="black"/>
<path d="M202.444 144.234C196.655 148.028 188.653 143.639 188.743 136.709C188.742 135.538 188.972 134.378 189.42 133.296C189.868 132.213 190.525 131.23 191.353 130.401C192.181 129.572 193.164 128.915 194.246 128.467C195.328 128.018 196.488 127.788 197.659 127.788C198.831 127.788 199.99 128.018 201.073 128.467C202.155 128.915 203.138 129.573 203.966 130.401C204.794 131.23 205.45 132.213 205.898 133.296C206.346 134.378 206.576 135.538 206.575 136.71C206.575 136.815 206.617 136.916 206.691 136.99C206.766 137.064 206.867 137.106 206.972 137.106C207.077 137.106 207.178 137.064 207.252 136.99C207.327 136.916 207.368 136.815 207.368 136.71C207.366 134.135 206.342 131.667 204.522 129.847C202.701 128.027 200.233 127.003 197.659 127C184.779 127.533 184.782 145.887 197.659 146.419C199.505 146.421 201.313 145.895 202.87 144.904C202.956 144.846 203.017 144.757 203.039 144.655C203.06 144.554 203.041 144.448 202.985 144.36C202.929 144.272 202.841 144.21 202.74 144.186C202.639 144.163 202.532 144.18 202.444 144.234Z" fill="white"/>
<path d="M210.111 143.033C210.076 142.972 210.026 142.921 209.966 142.886C209.905 142.85 209.836 142.832 209.766 142.832H208.3V138.572C208.3 138.52 208.29 138.468 208.27 138.42C208.25 138.372 208.221 138.328 208.184 138.291C208.147 138.255 208.103 138.225 208.055 138.205C208.007 138.186 207.956 138.175 207.904 138.175H206.041C205.989 138.175 205.937 138.186 205.889 138.205C205.841 138.225 205.797 138.255 205.76 138.291C205.723 138.328 205.694 138.372 205.674 138.42C205.654 138.468 205.644 138.52 205.644 138.572V142.832H204.178C204.108 142.833 204.04 142.852 203.98 142.887C203.92 142.923 203.87 142.974 203.836 143.034C203.801 143.095 203.783 143.164 203.784 143.234C203.784 143.304 203.803 143.372 203.838 143.433L206.632 148.089C206.667 148.148 206.717 148.196 206.777 148.23C206.836 148.264 206.903 148.281 206.972 148.281C207.04 148.281 207.108 148.264 207.167 148.23C207.227 148.196 207.277 148.148 207.312 148.089L210.106 143.433C210.142 143.372 210.162 143.304 210.163 143.233C210.163 143.163 210.146 143.094 210.111 143.033ZM206.972 147.114L204.879 143.625H206.041C206.093 143.625 206.144 143.615 206.193 143.595C206.241 143.575 206.284 143.546 206.321 143.509C206.358 143.472 206.387 143.428 206.407 143.38C206.427 143.332 206.437 143.28 206.437 143.228V138.969H207.507V143.228C207.507 143.28 207.517 143.332 207.537 143.38C207.557 143.428 207.586 143.472 207.623 143.509C207.66 143.546 207.704 143.575 207.752 143.595C207.8 143.615 207.851 143.625 207.904 143.625H209.065L206.972 147.114Z" fill="white"/>
<path d="M197.659 129.672C197.607 129.672 197.556 129.683 197.507 129.702C197.459 129.722 197.416 129.752 197.379 129.788C197.342 129.825 197.313 129.869 197.293 129.917C197.273 129.965 197.263 130.017 197.263 130.069V135.449C197.06 135.513 196.875 135.625 196.725 135.775C196.575 135.926 196.463 136.11 196.399 136.313H192.593C192.488 136.313 192.387 136.355 192.313 136.429C192.239 136.503 192.197 136.604 192.197 136.709C192.197 136.815 192.239 136.916 192.313 136.99C192.387 137.064 192.488 137.106 192.593 137.106H196.399C196.466 137.324 196.589 137.52 196.755 137.677C196.921 137.833 197.124 137.944 197.346 137.999C197.567 138.053 197.799 138.05 198.018 137.989C198.238 137.928 198.438 137.811 198.599 137.65C198.761 137.488 198.877 137.288 198.939 137.069C199 136.849 199.003 136.617 198.949 136.396C198.894 136.175 198.783 135.971 198.627 135.805C198.47 135.639 198.274 135.517 198.056 135.449V130.069C198.056 130.017 198.046 129.965 198.026 129.917C198.006 129.869 197.977 129.825 197.94 129.788C197.903 129.752 197.859 129.722 197.811 129.702C197.763 129.683 197.711 129.672 197.659 129.672ZM197.659 137.244C197.519 137.242 197.385 137.185 197.286 137.085C197.188 136.985 197.133 136.85 197.133 136.709C197.133 136.569 197.188 136.434 197.286 136.334C197.385 136.234 197.519 136.177 197.659 136.175C197.8 136.177 197.934 136.234 198.032 136.334C198.131 136.434 198.186 136.569 198.186 136.709C198.186 136.85 198.131 136.985 198.032 137.085C197.934 137.185 197.8 137.242 197.659 137.244Z" fill="white"/>
<path d="M85.6327 129.704H85.6607L88.5867 122.088H90.7427V132H89.3567V123.712H89.3287L86.0387 132H85.1567L81.8807 123.712H81.8527V132H80.5087V122.088H82.6647L85.6327 129.704ZM97.2152 127.702C97.2152 127.207 97.0658 126.843 96.7672 126.61C96.4685 126.367 96.0718 126.246 95.5772 126.246C95.2038 126.246 94.8492 126.321 94.5132 126.47C94.1865 126.61 93.9112 126.792 93.6872 127.016L92.9872 126.176C93.3138 125.868 93.7105 125.625 94.1772 125.448C94.6532 125.271 95.1618 125.182 95.7032 125.182C96.1792 125.182 96.5898 125.252 96.9352 125.392C97.2898 125.523 97.5792 125.705 97.8032 125.938C98.0272 126.171 98.1952 126.447 98.3072 126.764C98.4192 127.081 98.4752 127.422 98.4752 127.786V130.684C98.4752 130.908 98.4798 131.146 98.4892 131.398C98.5078 131.641 98.5358 131.841 98.5732 132H97.3832C97.3085 131.683 97.2712 131.365 97.2712 131.048H97.2292C96.9865 131.403 96.6785 131.678 96.3052 131.874C95.9412 132.07 95.5072 132.168 95.0032 132.168C94.7418 132.168 94.4665 132.131 94.1772 132.056C93.8972 131.991 93.6405 131.879 93.4072 131.72C93.1738 131.561 92.9778 131.351 92.8192 131.09C92.6698 130.829 92.5952 130.507 92.5952 130.124C92.5952 129.62 92.7305 129.223 93.0012 128.934C93.2718 128.635 93.6265 128.411 94.0652 128.262C94.5038 128.103 94.9985 128.001 95.5492 127.954C96.0998 127.907 96.6552 127.884 97.2152 127.884V127.702ZM96.8932 128.836C96.5665 128.836 96.2258 128.85 95.8712 128.878C95.5258 128.906 95.2085 128.962 94.9192 129.046C94.6392 129.13 94.4058 129.256 94.2192 129.424C94.0325 129.592 93.9392 129.816 93.9392 130.096C93.9392 130.292 93.9765 130.455 94.0512 130.586C94.1352 130.717 94.2425 130.824 94.3732 130.908C94.5038 130.992 94.6485 131.053 94.8072 131.09C94.9658 131.118 95.1292 131.132 95.2972 131.132C95.9132 131.132 96.3845 130.95 96.7112 130.586C97.0472 130.213 97.2152 129.746 97.2152 129.186V128.836H96.8932ZM101.863 125.364C101.882 125.532 101.896 125.723 101.905 125.938C101.914 126.143 101.919 126.316 101.919 126.456H101.961C102.045 126.279 102.157 126.115 102.297 125.966C102.446 125.807 102.614 125.672 102.801 125.56C102.988 125.439 103.193 125.345 103.417 125.28C103.641 125.215 103.874 125.182 104.117 125.182C104.546 125.182 104.915 125.257 105.223 125.406C105.531 125.546 105.788 125.737 105.993 125.98C106.198 126.223 106.348 126.507 106.441 126.834C106.544 127.161 106.595 127.511 106.595 127.884V132H105.279V128.318C105.279 128.047 105.256 127.791 105.209 127.548C105.172 127.305 105.097 127.091 104.985 126.904C104.873 126.717 104.719 126.568 104.523 126.456C104.327 126.344 104.075 126.288 103.767 126.288C103.244 126.288 102.815 126.489 102.479 126.89C102.152 127.282 101.989 127.809 101.989 128.472V132H100.673V126.792C100.673 126.615 100.668 126.386 100.659 126.106C100.65 125.826 100.636 125.579 100.617 125.364H101.863ZM113.498 132C113.479 131.832 113.465 131.645 113.456 131.44C113.446 131.225 113.442 131.048 113.442 130.908H113.414C113.246 131.263 112.961 131.566 112.56 131.818C112.168 132.061 111.729 132.182 111.244 132.182C110.814 132.182 110.441 132.112 110.124 131.972C109.816 131.832 109.559 131.641 109.354 131.398C109.158 131.146 109.008 130.857 108.906 130.53C108.812 130.203 108.766 129.853 108.766 129.48V125.364H110.082V129.032C110.082 129.303 110.1 129.564 110.138 129.816C110.184 130.059 110.264 130.273 110.376 130.46C110.488 130.647 110.642 130.796 110.838 130.908C111.034 131.02 111.286 131.076 111.594 131.076C112.126 131.076 112.555 130.88 112.882 130.488C113.208 130.087 113.372 129.555 113.372 128.892V125.364H114.688V130.572C114.688 130.749 114.692 130.978 114.702 131.258C114.711 131.538 114.725 131.785 114.744 132H113.498ZM121.1 127.702C121.1 127.207 120.951 126.843 120.652 126.61C120.353 126.367 119.957 126.246 119.462 126.246C119.089 126.246 118.734 126.321 118.398 126.47C118.071 126.61 117.796 126.792 117.572 127.016L116.872 126.176C117.199 125.868 117.595 125.625 118.062 125.448C118.538 125.271 119.047 125.182 119.588 125.182C120.064 125.182 120.475 125.252 120.82 125.392C121.175 125.523 121.464 125.705 121.688 125.938C121.912 126.171 122.08 126.447 122.192 126.764C122.304 127.081 122.36 127.422 122.36 127.786V130.684C122.36 130.908 122.365 131.146 122.374 131.398C122.393 131.641 122.421 131.841 122.458 132H121.268C121.193 131.683 121.156 131.365 121.156 131.048H121.114C120.871 131.403 120.563 131.678 120.19 131.874C119.826 132.07 119.392 132.168 118.888 132.168C118.627 132.168 118.351 132.131 118.062 132.056C117.782 131.991 117.525 131.879 117.292 131.72C117.059 131.561 116.863 131.351 116.704 131.09C116.555 130.829 116.48 130.507 116.48 130.124C116.48 129.62 116.615 129.223 116.886 128.934C117.157 128.635 117.511 128.411 117.95 128.262C118.389 128.103 118.883 128.001 119.434 127.954C119.985 127.907 120.54 127.884 121.1 127.884V127.702ZM120.778 128.836C120.451 128.836 120.111 128.85 119.756 128.878C119.411 128.906 119.093 128.962 118.804 129.046C118.524 129.13 118.291 129.256 118.104 129.424C117.917 129.592 117.824 129.816 117.824 130.096C117.824 130.292 117.861 130.455 117.936 130.586C118.02 130.717 118.127 130.824 118.258 130.908C118.389 130.992 118.533 131.053 118.692 131.09C118.851 131.118 119.014 131.132 119.182 131.132C119.798 131.132 120.269 130.95 120.596 130.586C120.932 130.213 121.1 129.746 121.1 129.186V128.836H120.778ZM125.902 132H124.586V121.416H125.902V132ZM131.765 122.088H134.789C135.321 122.088 135.806 122.144 136.245 122.256C136.683 122.359 137.057 122.522 137.365 122.746C137.673 122.97 137.911 123.255 138.079 123.6C138.247 123.945 138.331 124.361 138.331 124.846C138.331 125.341 138.237 125.765 138.051 126.12C137.873 126.475 137.621 126.764 137.295 126.988C136.977 127.212 136.595 127.38 136.147 127.492C135.708 127.595 135.232 127.646 134.719 127.646H133.151V132H131.765V122.088ZM133.151 126.47H134.621C134.957 126.47 135.265 126.442 135.545 126.386C135.834 126.321 136.081 126.227 136.287 126.106C136.492 125.975 136.651 125.807 136.763 125.602C136.875 125.397 136.931 125.145 136.931 124.846C136.931 124.547 136.87 124.3 136.749 124.104C136.637 123.899 136.478 123.735 136.273 123.614C136.077 123.483 135.839 123.395 135.559 123.348C135.279 123.292 134.975 123.264 134.649 123.264H133.151V126.47ZM139.378 126.792C139.378 126.615 139.373 126.386 139.364 126.106C139.355 125.826 139.341 125.579 139.322 125.364H140.568C140.587 125.532 140.601 125.728 140.61 125.952C140.619 126.167 140.624 126.344 140.624 126.484H140.666C140.853 126.092 141.123 125.779 141.478 125.546C141.842 125.303 142.248 125.182 142.696 125.182C142.901 125.182 143.074 125.201 143.214 125.238L143.158 126.456C142.971 126.409 142.771 126.386 142.556 126.386C142.239 126.386 141.963 126.447 141.73 126.568C141.497 126.68 141.301 126.834 141.142 127.03C140.993 127.226 140.881 127.455 140.806 127.716C140.731 127.968 140.694 128.234 140.694 128.514V132H139.378V126.792ZM150.924 128.668C150.924 129.181 150.831 129.653 150.644 130.082C150.467 130.511 150.215 130.885 149.888 131.202C149.571 131.51 149.193 131.753 148.754 131.93C148.316 132.098 147.844 132.182 147.34 132.182C146.836 132.182 146.365 132.098 145.926 131.93C145.488 131.753 145.11 131.51 144.792 131.202C144.475 130.885 144.223 130.511 144.036 130.082C143.859 129.653 143.77 129.181 143.77 128.668C143.77 128.155 143.859 127.688 144.036 127.268C144.223 126.839 144.475 126.47 144.792 126.162C145.11 125.854 145.488 125.616 145.926 125.448C146.365 125.271 146.836 125.182 147.34 125.182C147.844 125.182 148.316 125.271 148.754 125.448C149.193 125.616 149.571 125.854 149.888 126.162C150.215 126.47 150.467 126.839 150.644 127.268C150.831 127.688 150.924 128.155 150.924 128.668ZM149.552 128.668C149.552 128.351 149.501 128.047 149.398 127.758C149.305 127.469 149.165 127.217 148.978 127.002C148.792 126.778 148.558 126.601 148.278 126.47C148.008 126.339 147.695 126.274 147.34 126.274C146.986 126.274 146.668 126.339 146.388 126.47C146.118 126.601 145.889 126.778 145.702 127.002C145.516 127.217 145.371 127.469 145.268 127.758C145.175 128.047 145.128 128.351 145.128 128.668C145.128 128.985 145.175 129.289 145.268 129.578C145.371 129.867 145.516 130.124 145.702 130.348C145.889 130.572 146.118 130.749 146.388 130.88C146.668 131.011 146.986 131.076 147.34 131.076C147.695 131.076 148.008 131.011 148.278 130.88C148.558 130.749 148.792 130.572 148.978 130.348C149.165 130.124 149.305 129.867 149.398 129.578C149.501 129.289 149.552 128.985 149.552 128.668ZM157.397 127.044C157.257 126.829 157.047 126.652 156.767 126.512C156.487 126.363 156.189 126.288 155.871 126.288C155.526 126.288 155.218 126.353 154.947 126.484C154.686 126.615 154.462 126.792 154.275 127.016C154.089 127.231 153.944 127.483 153.841 127.772C153.748 128.061 153.701 128.365 153.701 128.682C153.701 128.999 153.748 129.303 153.841 129.592C153.944 129.881 154.089 130.138 154.275 130.362C154.462 130.577 154.691 130.749 154.961 130.88C155.232 131.011 155.54 131.076 155.885 131.076C156.221 131.076 156.525 131.011 156.795 130.88C157.075 130.749 157.304 130.572 157.481 130.348L158.363 131.146C158.083 131.473 157.733 131.729 157.313 131.916C156.893 132.093 156.417 132.182 155.885 132.182C155.372 132.182 154.896 132.098 154.457 131.93C154.028 131.762 153.655 131.529 153.337 131.23C153.02 130.922 152.768 130.553 152.581 130.124C152.404 129.695 152.315 129.214 152.315 128.682C152.315 128.159 152.404 127.683 152.581 127.254C152.759 126.825 153.006 126.456 153.323 126.148C153.641 125.84 154.014 125.602 154.443 125.434C154.882 125.266 155.353 125.182 155.857 125.182C156.324 125.182 156.786 125.275 157.243 125.462C157.71 125.649 158.079 125.919 158.349 126.274L157.397 127.044ZM164.525 128.094C164.516 127.833 164.469 127.59 164.385 127.366C164.311 127.133 164.194 126.932 164.035 126.764C163.886 126.596 163.695 126.465 163.461 126.372C163.237 126.269 162.971 126.218 162.663 126.218C162.383 126.218 162.117 126.269 161.865 126.372C161.623 126.465 161.408 126.596 161.221 126.764C161.044 126.932 160.895 127.133 160.773 127.366C160.661 127.59 160.596 127.833 160.577 128.094H164.525ZM165.855 128.626C165.855 128.701 165.855 128.775 165.855 128.85C165.855 128.925 165.851 128.999 165.841 129.074H160.577C160.587 129.354 160.647 129.62 160.759 129.872C160.881 130.115 161.039 130.329 161.235 130.516C161.431 130.693 161.655 130.833 161.907 130.936C162.169 131.039 162.444 131.09 162.733 131.09C163.181 131.09 163.569 130.992 163.895 130.796C164.222 130.6 164.479 130.362 164.665 130.082L165.589 130.824C165.235 131.291 164.815 131.636 164.329 131.86C163.853 132.075 163.321 132.182 162.733 132.182C162.229 132.182 161.763 132.098 161.333 131.93C160.904 131.762 160.535 131.529 160.227 131.23C159.919 130.922 159.677 130.553 159.499 130.124C159.322 129.695 159.233 129.219 159.233 128.696C159.233 128.183 159.317 127.711 159.485 127.282C159.663 126.843 159.905 126.47 160.213 126.162C160.521 125.854 160.885 125.616 161.305 125.448C161.725 125.271 162.178 125.182 162.663 125.182C163.149 125.182 163.587 125.261 163.979 125.42C164.381 125.579 164.717 125.807 164.987 126.106C165.267 126.405 165.482 126.769 165.631 127.198C165.781 127.618 165.855 128.094 165.855 128.626ZM171.277 127.044C171.127 126.801 170.917 126.605 170.647 126.456C170.376 126.297 170.073 126.218 169.737 126.218C169.587 126.218 169.438 126.237 169.289 126.274C169.139 126.302 169.004 126.353 168.883 126.428C168.771 126.493 168.677 126.582 168.603 126.694C168.537 126.797 168.505 126.927 168.505 127.086C168.505 127.366 168.631 127.576 168.883 127.716C169.135 127.847 169.513 127.968 170.017 128.08C170.334 128.155 170.628 128.243 170.899 128.346C171.169 128.449 171.403 128.579 171.599 128.738C171.804 128.887 171.963 129.069 172.075 129.284C172.187 129.499 172.243 129.751 172.243 130.04C172.243 130.432 172.168 130.763 172.019 131.034C171.869 131.305 171.669 131.529 171.417 131.706C171.174 131.874 170.894 131.995 170.577 132.07C170.259 132.145 169.933 132.182 169.597 132.182C169.093 132.182 168.598 132.084 168.113 131.888C167.637 131.692 167.24 131.393 166.923 130.992L167.861 130.194C168.038 130.455 168.281 130.675 168.589 130.852C168.906 131.029 169.251 131.118 169.625 131.118C169.793 131.118 169.951 131.104 170.101 131.076C170.259 131.039 170.399 130.983 170.521 130.908C170.651 130.833 170.754 130.735 170.829 130.614C170.903 130.493 170.941 130.339 170.941 130.152C170.941 129.844 170.791 129.615 170.493 129.466C170.203 129.317 169.774 129.177 169.205 129.046C168.981 128.99 168.752 128.925 168.519 128.85C168.295 128.766 168.089 128.654 167.903 128.514C167.716 128.374 167.562 128.201 167.441 127.996C167.329 127.781 167.273 127.52 167.273 127.212C167.273 126.857 167.343 126.554 167.483 126.302C167.632 126.041 167.823 125.831 168.057 125.672C168.29 125.504 168.556 125.383 168.855 125.308C169.153 125.224 169.461 125.182 169.779 125.182C170.255 125.182 170.712 125.275 171.151 125.462C171.599 125.649 171.944 125.919 172.187 126.274L171.277 127.044ZM177.497 127.044C177.348 126.801 177.138 126.605 176.867 126.456C176.597 126.297 176.293 126.218 175.957 126.218C175.808 126.218 175.659 126.237 175.509 126.274C175.36 126.302 175.225 126.353 175.103 126.428C174.991 126.493 174.898 126.582 174.823 126.694C174.758 126.797 174.725 126.927 174.725 127.086C174.725 127.366 174.851 127.576 175.103 127.716C175.355 127.847 175.733 127.968 176.237 128.08C176.555 128.155 176.849 128.243 177.119 128.346C177.39 128.449 177.623 128.579 177.819 128.738C178.025 128.887 178.183 129.069 178.295 129.284C178.407 129.499 178.463 129.751 178.463 130.04C178.463 130.432 178.389 130.763 178.239 131.034C178.09 131.305 177.889 131.529 177.637 131.706C177.395 131.874 177.115 131.995 176.797 132.07C176.48 132.145 176.153 132.182 175.817 132.182C175.313 132.182 174.819 132.084 174.333 131.888C173.857 131.692 173.461 131.393 173.143 130.992L174.081 130.194C174.259 130.455 174.501 130.675 174.809 130.852C175.127 131.029 175.472 131.118 175.845 131.118C176.013 131.118 176.172 131.104 176.321 131.076C176.48 131.039 176.62 130.983 176.741 130.908C176.872 130.833 176.975 130.735 177.049 130.614C177.124 130.493 177.161 130.339 177.161 130.152C177.161 129.844 177.012 129.615 176.713 129.466C176.424 129.317 175.995 129.177 175.425 129.046C175.201 128.99 174.973 128.925 174.739 128.85C174.515 128.766 174.31 128.654 174.123 128.514C173.937 128.374 173.783 128.201 173.661 127.996C173.549 127.781 173.493 127.52 173.493 127.212C173.493 126.857 173.563 126.554 173.703 126.302C173.853 126.041 174.044 125.831 174.277 125.672C174.511 125.504 174.777 125.383 175.075 125.308C175.374 125.224 175.682 125.182 175.999 125.182C176.475 125.182 176.933 125.275 177.371 125.462C177.819 125.649 178.165 125.919 178.407 126.274L177.497 127.044ZM74.4651 151H73.0791V142.306H69.9011V141.088H77.6431V142.306H74.4651V151ZM80.0597 151H78.7437V144.364H80.0597V151ZM80.2837 141.97C80.2837 142.213 80.195 142.413 80.0177 142.572C79.8497 142.731 79.6444 142.81 79.4017 142.81C79.159 142.81 78.9537 142.731 78.7857 142.572C78.6177 142.404 78.5337 142.203 78.5337 141.97C78.5337 141.727 78.6177 141.527 78.7857 141.368C78.9537 141.2 79.159 141.116 79.4017 141.116C79.6444 141.116 79.8497 141.2 80.0177 141.368C80.195 141.527 80.2837 141.727 80.2837 141.97ZM83.6408 145.456C83.8088 145.101 84.0748 144.803 84.4388 144.56C84.8121 144.308 85.2508 144.182 85.7548 144.182C86.2028 144.182 86.6041 144.285 86.9588 144.49C87.3228 144.695 87.6074 145.036 87.8128 145.512C88.0368 145.083 88.3494 144.756 88.7508 144.532C89.1521 144.299 89.5908 144.182 90.0668 144.182C90.4961 144.182 90.8648 144.257 91.1728 144.406C91.4808 144.546 91.7374 144.737 91.9428 144.98C92.1481 145.223 92.2974 145.507 92.3908 145.834C92.4934 146.161 92.5448 146.511 92.5448 146.884V151H91.2288V147.318C91.2288 147.047 91.2054 146.791 91.1588 146.548C91.1121 146.305 91.0328 146.091 90.9208 145.904C90.8088 145.717 90.6594 145.568 90.4728 145.456C90.2861 145.344 90.0481 145.288 89.7588 145.288C89.4601 145.288 89.2034 145.353 88.9888 145.484C88.7741 145.605 88.5968 145.769 88.4568 145.974C88.3261 146.17 88.2281 146.394 88.1628 146.646C88.1068 146.898 88.0788 147.155 88.0788 147.416V151H86.7628V147.052C86.7628 146.791 86.7394 146.553 86.6928 146.338C86.6461 146.123 86.5668 145.941 86.4548 145.792C86.3428 145.633 86.1981 145.512 86.0208 145.428C85.8434 145.335 85.6241 145.288 85.3628 145.288C84.8774 145.288 84.4714 145.489 84.1448 145.89C83.8274 146.282 83.6688 146.809 83.6688 147.472V151H82.3528V145.792C82.3528 145.615 82.3481 145.386 82.3388 145.106C82.3294 144.826 82.3154 144.579 82.2968 144.364H83.5428C83.5614 144.532 83.5754 144.723 83.5848 144.938C83.5941 145.143 83.5988 145.316 83.5988 145.456H83.6408ZM99.6248 147.094C99.6155 146.833 99.5688 146.59 99.4848 146.366C99.4101 146.133 99.2935 145.932 99.1348 145.764C98.9855 145.596 98.7941 145.465 98.5608 145.372C98.3368 145.269 98.0708 145.218 97.7628 145.218C97.4828 145.218 97.2168 145.269 96.9648 145.372C96.7221 145.465 96.5075 145.596 96.3208 145.764C96.1435 145.932 95.9941 146.133 95.8728 146.366C95.7608 146.59 95.6955 146.833 95.6768 147.094H99.6248ZM100.955 147.626C100.955 147.701 100.955 147.775 100.955 147.85C100.955 147.925 100.95 147.999 100.941 148.074H95.6768C95.6861 148.354 95.7468 148.62 95.8588 148.872C95.9801 149.115 96.1388 149.329 96.3348 149.516C96.5308 149.693 96.7548 149.833 97.0068 149.936C97.2681 150.039 97.5435 150.09 97.8328 150.09C98.2808 150.09 98.6681 149.992 98.9948 149.796C99.3215 149.6 99.5781 149.362 99.7648 149.082L100.689 149.824C100.334 150.291 99.9141 150.636 99.4288 150.86C98.9528 151.075 98.4208 151.182 97.8328 151.182C97.3288 151.182 96.8621 151.098 96.4328 150.93C96.0035 150.762 95.6348 150.529 95.3268 150.23C95.0188 149.922 94.7761 149.553 94.5988 149.124C94.4215 148.695 94.3328 148.219 94.3328 147.696C94.3328 147.183 94.4168 146.711 94.5848 146.282C94.7621 145.843 95.0048 145.47 95.3128 145.162C95.6208 144.854 95.9848 144.616 96.4048 144.448C96.8248 144.271 97.2775 144.182 97.7628 144.182C98.2481 144.182 98.6868 144.261 99.0788 144.42C99.4801 144.579 99.8161 144.807 100.087 145.106C100.367 145.405 100.581 145.769 100.731 146.198C100.88 146.618 100.955 147.094 100.955 147.626ZM114.86 149.46C114.468 149.992 113.96 150.426 113.334 150.762C112.709 151.089 111.958 151.252 111.08 151.252C110.324 151.252 109.624 151.126 108.98 150.874C108.346 150.613 107.795 150.253 107.328 149.796C106.871 149.329 106.512 148.779 106.25 148.144C105.989 147.5 105.858 146.795 105.858 146.03C105.858 145.255 105.989 144.551 106.25 143.916C106.521 143.272 106.89 142.726 107.356 142.278C107.832 141.821 108.392 141.466 109.036 141.214C109.68 140.962 110.38 140.836 111.136 140.836C111.472 140.836 111.813 140.869 112.158 140.934C112.504 140.999 112.835 141.097 113.152 141.228C113.47 141.359 113.759 141.522 114.02 141.718C114.282 141.905 114.506 142.124 114.692 142.376L113.6 143.216C113.358 142.88 113.012 142.605 112.564 142.39C112.126 142.166 111.65 142.054 111.136 142.054C110.558 142.054 110.035 142.161 109.568 142.376C109.111 142.581 108.719 142.866 108.392 143.23C108.066 143.594 107.814 144.019 107.636 144.504C107.459 144.98 107.37 145.489 107.37 146.03C107.37 146.59 107.454 147.113 107.622 147.598C107.8 148.083 108.047 148.508 108.364 148.872C108.691 149.227 109.083 149.507 109.54 149.712C110.007 149.917 110.525 150.02 111.094 150.02C111.654 150.02 112.163 149.908 112.62 149.684C113.078 149.46 113.456 149.133 113.754 148.704L114.86 149.46ZM122.76 147.668C122.76 148.181 122.667 148.653 122.48 149.082C122.303 149.511 122.051 149.885 121.724 150.202C121.407 150.51 121.029 150.753 120.59 150.93C120.152 151.098 119.68 151.182 119.176 151.182C118.672 151.182 118.201 151.098 117.762 150.93C117.324 150.753 116.946 150.51 116.628 150.202C116.311 149.885 116.059 149.511 115.872 149.082C115.695 148.653 115.606 148.181 115.606 147.668C115.606 147.155 115.695 146.688 115.872 146.268C116.059 145.839 116.311 145.47 116.628 145.162C116.946 144.854 117.324 144.616 117.762 144.448C118.201 144.271 118.672 144.182 119.176 144.182C119.68 144.182 120.152 144.271 120.59 144.448C121.029 144.616 121.407 144.854 121.724 145.162C122.051 145.47 122.303 145.839 122.48 146.268C122.667 146.688 122.76 147.155 122.76 147.668ZM121.388 147.668C121.388 147.351 121.337 147.047 121.234 146.758C121.141 146.469 121.001 146.217 120.814 146.002C120.628 145.778 120.394 145.601 120.114 145.47C119.844 145.339 119.531 145.274 119.176 145.274C118.822 145.274 118.504 145.339 118.224 145.47C117.954 145.601 117.725 145.778 117.538 146.002C117.352 146.217 117.207 146.469 117.104 146.758C117.011 147.047 116.964 147.351 116.964 147.668C116.964 147.985 117.011 148.289 117.104 148.578C117.207 148.867 117.352 149.124 117.538 149.348C117.725 149.572 117.954 149.749 118.224 149.88C118.504 150.011 118.822 150.076 119.176 150.076C119.531 150.076 119.844 150.011 120.114 149.88C120.394 149.749 120.628 149.572 120.814 149.348C121.001 149.124 121.141 148.867 121.234 148.578C121.337 148.289 121.388 147.985 121.388 147.668ZM125.775 144.364C125.794 144.532 125.808 144.723 125.817 144.938C125.827 145.143 125.831 145.316 125.831 145.456H125.873C125.957 145.279 126.069 145.115 126.209 144.966C126.359 144.807 126.527 144.672 126.713 144.56C126.9 144.439 127.105 144.345 127.329 144.28C127.553 144.215 127.787 144.182 128.029 144.182C128.459 144.182 128.827 144.257 129.135 144.406C129.443 144.546 129.7 144.737 129.905 144.98C130.111 145.223 130.26 145.507 130.353 145.834C130.456 146.161 130.507 146.511 130.507 146.884V151H129.191V147.318C129.191 147.047 129.168 146.791 129.121 146.548C129.084 146.305 129.009 146.091 128.897 145.904C128.785 145.717 128.631 145.568 128.435 145.456C128.239 145.344 127.987 145.288 127.679 145.288C127.157 145.288 126.727 145.489 126.391 145.89C126.065 146.282 125.901 146.809 125.901 147.472V151H124.585V145.792C124.585 145.615 124.581 145.386 124.571 145.106C124.562 144.826 124.548 144.579 124.529 144.364H125.775ZM136.318 146.044C136.168 145.801 135.958 145.605 135.688 145.456C135.417 145.297 135.114 145.218 134.778 145.218C134.628 145.218 134.479 145.237 134.33 145.274C134.18 145.302 134.045 145.353 133.924 145.428C133.812 145.493 133.718 145.582 133.644 145.694C133.578 145.797 133.546 145.927 133.546 146.086C133.546 146.366 133.672 146.576 133.924 146.716C134.176 146.847 134.554 146.968 135.058 147.08C135.375 147.155 135.669 147.243 135.94 147.346C136.21 147.449 136.444 147.579 136.64 147.738C136.845 147.887 137.004 148.069 137.116 148.284C137.228 148.499 137.284 148.751 137.284 149.04C137.284 149.432 137.209 149.763 137.06 150.034C136.91 150.305 136.71 150.529 136.458 150.706C136.215 150.874 135.935 150.995 135.618 151.07C135.3 151.145 134.974 151.182 134.638 151.182C134.134 151.182 133.639 151.084 133.154 150.888C132.678 150.692 132.281 150.393 131.964 149.992L132.902 149.194C133.079 149.455 133.322 149.675 133.63 149.852C133.947 150.029 134.292 150.118 134.666 150.118C134.834 150.118 134.992 150.104 135.142 150.076C135.3 150.039 135.44 149.983 135.562 149.908C135.692 149.833 135.795 149.735 135.87 149.614C135.944 149.493 135.982 149.339 135.982 149.152C135.982 148.844 135.832 148.615 135.534 148.466C135.244 148.317 134.815 148.177 134.246 148.046C134.022 147.99 133.793 147.925 133.56 147.85C133.336 147.766 133.13 147.654 132.944 147.514C132.757 147.374 132.603 147.201 132.482 146.996C132.37 146.781 132.314 146.52 132.314 146.212C132.314 145.857 132.384 145.554 132.524 145.302C132.673 145.041 132.864 144.831 133.098 144.672C133.331 144.504 133.597 144.383 133.896 144.308C134.194 144.224 134.502 144.182 134.82 144.182C135.296 144.182 135.753 144.275 136.192 144.462C136.64 144.649 136.985 144.919 137.228 145.274L136.318 146.044ZM143.63 151C143.612 150.832 143.598 150.645 143.588 150.44C143.579 150.225 143.574 150.048 143.574 149.908H143.546C143.378 150.263 143.094 150.566 142.692 150.818C142.3 151.061 141.862 151.182 141.376 151.182C140.947 151.182 140.574 151.112 140.256 150.972C139.948 150.832 139.692 150.641 139.486 150.398C139.29 150.146 139.141 149.857 139.038 149.53C138.945 149.203 138.898 148.853 138.898 148.48V144.364H140.214V148.032C140.214 148.303 140.233 148.564 140.27 148.816C140.317 149.059 140.396 149.273 140.508 149.46C140.62 149.647 140.774 149.796 140.97 149.908C141.166 150.02 141.418 150.076 141.726 150.076C142.258 150.076 142.688 149.88 143.014 149.488C143.341 149.087 143.504 148.555 143.504 147.892V144.364H144.82V149.572C144.82 149.749 144.825 149.978 144.834 150.258C144.844 150.538 144.858 150.785 144.876 151H143.63ZM148.391 145.456C148.559 145.101 148.825 144.803 149.189 144.56C149.562 144.308 150.001 144.182 150.505 144.182C150.953 144.182 151.354 144.285 151.709 144.49C152.073 144.695 152.357 145.036 152.563 145.512C152.787 145.083 153.099 144.756 153.501 144.532C153.902 144.299 154.341 144.182 154.817 144.182C155.246 144.182 155.615 144.257 155.923 144.406C156.231 144.546 156.487 144.737 156.693 144.98C156.898 145.223 157.047 145.507 157.141 145.834C157.243 146.161 157.295 146.511 157.295 146.884V151H155.979V147.318C155.979 147.047 155.955 146.791 155.909 146.548C155.862 146.305 155.783 146.091 155.671 145.904C155.559 145.717 155.409 145.568 155.223 145.456C155.036 145.344 154.798 145.288 154.509 145.288C154.21 145.288 153.953 145.353 153.739 145.484C153.524 145.605 153.347 145.769 153.207 145.974C153.076 146.17 152.978 146.394 152.913 146.646C152.857 146.898 152.829 147.155 152.829 147.416V151H151.513V147.052C151.513 146.791 151.489 146.553 151.443 146.338C151.396 146.123 151.317 145.941 151.205 145.792C151.093 145.633 150.948 145.512 150.771 145.428C150.593 145.335 150.374 145.288 150.113 145.288C149.627 145.288 149.221 145.489 148.895 145.89C148.577 146.282 148.419 146.809 148.419 147.472V151H147.103V145.792C147.103 145.615 147.098 145.386 147.089 145.106C147.079 144.826 147.065 144.579 147.047 144.364H148.293C148.311 144.532 148.325 144.723 148.335 144.938C148.344 145.143 148.349 145.316 148.349 145.456H148.391ZM160.847 151H159.531V144.364H160.847V151ZM161.071 141.97C161.071 142.213 160.982 142.413 160.805 142.572C160.637 142.731 160.431 142.81 160.189 142.81C159.946 142.81 159.741 142.731 159.573 142.572C159.405 142.404 159.321 142.203 159.321 141.97C159.321 141.727 159.405 141.527 159.573 141.368C159.741 141.2 159.946 141.116 160.189 141.116C160.431 141.116 160.637 141.2 160.805 141.368C160.982 141.527 161.071 141.727 161.071 141.97ZM164.33 144.364C164.349 144.532 164.363 144.723 164.372 144.938C164.381 145.143 164.386 145.316 164.386 145.456H164.428C164.512 145.279 164.624 145.115 164.764 144.966C164.913 144.807 165.081 144.672 165.268 144.56C165.455 144.439 165.66 144.345 165.884 144.28C166.108 144.215 166.341 144.182 166.584 144.182C167.013 144.182 167.382 144.257 167.69 144.406C167.998 144.546 168.255 144.737 168.46 144.98C168.665 145.223 168.815 145.507 168.908 145.834C169.011 146.161 169.062 146.511 169.062 146.884V151H167.746V147.318C167.746 147.047 167.723 146.791 167.676 146.548C167.639 146.305 167.564 146.091 167.452 145.904C167.34 145.717 167.186 145.568 166.99 145.456C166.794 145.344 166.542 145.288 166.234 145.288C165.711 145.288 165.282 145.489 164.946 145.89C164.619 146.282 164.456 146.809 164.456 147.472V151H163.14V145.792C163.14 145.615 163.135 145.386 163.126 145.106C163.117 144.826 163.103 144.579 163.084 144.364H164.33ZM171.806 152.134C172.096 152.461 172.455 152.722 172.884 152.918C173.323 153.114 173.771 153.212 174.228 153.212C174.667 153.212 175.036 153.147 175.334 153.016C175.633 152.895 175.871 152.722 176.048 152.498C176.235 152.283 176.366 152.027 176.44 151.728C176.524 151.429 176.566 151.107 176.566 150.762V149.908H176.538C176.296 150.281 175.964 150.566 175.544 150.762C175.124 150.958 174.676 151.056 174.2 151.056C173.696 151.056 173.234 150.967 172.814 150.79C172.404 150.613 172.054 150.37 171.764 150.062C171.475 149.754 171.251 149.395 171.092 148.984C170.934 148.564 170.854 148.116 170.854 147.64C170.854 147.164 170.934 146.716 171.092 146.296C171.251 145.876 171.475 145.512 171.764 145.204C172.054 144.887 172.404 144.639 172.814 144.462C173.225 144.275 173.682 144.182 174.186 144.182C174.662 144.182 175.115 144.285 175.544 144.49C175.983 144.695 176.328 145.008 176.58 145.428H176.608V144.364H177.882V150.664C177.882 151.149 177.822 151.611 177.7 152.05C177.579 152.498 177.374 152.89 177.084 153.226C176.795 153.571 176.417 153.847 175.95 154.052C175.484 154.257 174.905 154.36 174.214 154.36C173.636 154.36 173.052 154.253 172.464 154.038C171.886 153.833 171.386 153.539 170.966 153.156L171.806 152.134ZM172.212 147.612C172.212 147.92 172.259 148.214 172.352 148.494C172.455 148.774 172.6 149.021 172.786 149.236C172.982 149.451 173.216 149.623 173.486 149.754C173.757 149.885 174.065 149.95 174.41 149.95C174.746 149.95 175.054 149.889 175.334 149.768C175.614 149.647 175.852 149.483 176.048 149.278C176.244 149.063 176.394 148.816 176.496 148.536C176.608 148.247 176.664 147.939 176.664 147.612C176.664 147.295 176.608 146.996 176.496 146.716C176.394 146.436 176.24 146.189 176.034 145.974C175.838 145.759 175.6 145.591 175.32 145.47C175.05 145.339 174.746 145.274 174.41 145.274C174.065 145.274 173.757 145.339 173.486 145.47C173.216 145.591 172.982 145.759 172.786 145.974C172.6 146.179 172.455 146.427 172.352 146.716C172.259 146.996 172.212 147.295 172.212 147.612Z" fill="white"/>
<path d="M247.204 237.088H250.62C250.993 237.088 251.367 237.13 251.74 237.214C252.113 237.298 252.445 237.438 252.734 237.634C253.033 237.83 253.271 238.087 253.448 238.404C253.635 238.721 253.728 239.118 253.728 239.594C253.728 240.145 253.569 240.607 253.252 240.98C252.935 241.353 252.515 241.61 251.992 241.75V241.778C252.309 241.815 252.603 241.899 252.874 242.03C253.145 242.151 253.378 242.315 253.574 242.52C253.77 242.725 253.919 242.968 254.022 243.248C254.134 243.528 254.19 243.841 254.19 244.186C254.19 244.662 254.092 245.077 253.896 245.432C253.7 245.787 253.434 246.081 253.098 246.314C252.762 246.538 252.365 246.711 251.908 246.832C251.46 246.944 250.979 247 250.466 247H247.204V237.088ZM248.59 241.274H250.396C250.657 241.274 250.905 241.246 251.138 241.19C251.381 241.125 251.591 241.031 251.768 240.91C251.945 240.779 252.085 240.621 252.188 240.434C252.291 240.238 252.342 240.005 252.342 239.734C252.342 239.202 252.146 238.824 251.754 238.6C251.362 238.367 250.835 238.25 250.172 238.25H248.59V241.274ZM248.59 245.824H250.326C250.615 245.824 250.905 245.801 251.194 245.754C251.493 245.698 251.759 245.605 251.992 245.474C252.235 245.343 252.426 245.171 252.566 244.956C252.715 244.732 252.79 244.452 252.79 244.116C252.79 243.528 252.589 243.103 252.188 242.842C251.787 242.581 251.208 242.45 250.452 242.45H248.59V245.824ZM256.116 241.792C256.116 241.615 256.112 241.386 256.102 241.106C256.093 240.826 256.079 240.579 256.06 240.364H257.306C257.325 240.532 257.339 240.728 257.348 240.952C257.358 241.167 257.362 241.344 257.362 241.484H257.404C257.591 241.092 257.862 240.779 258.216 240.546C258.58 240.303 258.986 240.182 259.434 240.182C259.64 240.182 259.812 240.201 259.952 240.238L259.896 241.456C259.71 241.409 259.509 241.386 259.294 241.386C258.977 241.386 258.702 241.447 258.468 241.568C258.235 241.68 258.039 241.834 257.88 242.03C257.731 242.226 257.619 242.455 257.544 242.716C257.47 242.968 257.432 243.234 257.432 243.514V247H256.116V241.792ZM267.663 243.668C267.663 244.181 267.569 244.653 267.383 245.082C267.205 245.511 266.953 245.885 266.627 246.202C266.309 246.51 265.931 246.753 265.493 246.93C265.054 247.098 264.583 247.182 264.079 247.182C263.575 247.182 263.103 247.098 262.665 246.93C262.226 246.753 261.848 246.51 261.531 246.202C261.213 245.885 260.961 245.511 260.775 245.082C260.597 244.653 260.509 244.181 260.509 243.668C260.509 243.155 260.597 242.688 260.775 242.268C260.961 241.839 261.213 241.47 261.531 241.162C261.848 240.854 262.226 240.616 262.665 240.448C263.103 240.271 263.575 240.182 264.079 240.182C264.583 240.182 265.054 240.271 265.493 240.448C265.931 240.616 266.309 240.854 266.627 241.162C266.953 241.47 267.205 241.839 267.383 242.268C267.569 242.688 267.663 243.155 267.663 243.668ZM266.291 243.668C266.291 243.351 266.239 243.047 266.137 242.758C266.043 242.469 265.903 242.217 265.717 242.002C265.53 241.778 265.297 241.601 265.017 241.47C264.746 241.339 264.433 241.274 264.079 241.274C263.724 241.274 263.407 241.339 263.127 241.47C262.856 241.601 262.627 241.778 262.441 242.002C262.254 242.217 262.109 242.469 262.007 242.758C261.913 243.047 261.867 243.351 261.867 243.668C261.867 243.985 261.913 244.289 262.007 244.578C262.109 244.867 262.254 245.124 262.441 245.348C262.627 245.572 262.856 245.749 263.127 245.88C263.407 246.011 263.724 246.076 264.079 246.076C264.433 246.076 264.746 246.011 265.017 245.88C265.297 245.749 265.53 245.572 265.717 245.348C265.903 245.124 266.043 244.867 266.137 244.578C266.239 244.289 266.291 243.985 266.291 243.668ZM270.832 243.248H270.874L273.66 240.364H275.424L272.316 243.374L275.69 247H273.87L270.874 243.556H270.832V247H269.516V236.416H270.832V243.248ZM281.482 243.094C281.473 242.833 281.426 242.59 281.342 242.366C281.268 242.133 281.151 241.932 280.992 241.764C280.843 241.596 280.652 241.465 280.418 241.372C280.194 241.269 279.928 241.218 279.62 241.218C279.34 241.218 279.074 241.269 278.822 241.372C278.58 241.465 278.365 241.596 278.178 241.764C278.001 241.932 277.852 242.133 277.73 242.366C277.618 242.59 277.553 242.833 277.534 243.094H281.482ZM282.812 243.626C282.812 243.701 282.812 243.775 282.812 243.85C282.812 243.925 282.808 243.999 282.798 244.074H277.534C277.544 244.354 277.604 244.62 277.716 244.872C277.838 245.115 277.996 245.329 278.192 245.516C278.388 245.693 278.612 245.833 278.864 245.936C279.126 246.039 279.401 246.09 279.69 246.09C280.138 246.09 280.526 245.992 280.852 245.796C281.179 245.6 281.436 245.362 281.622 245.082L282.546 245.824C282.192 246.291 281.772 246.636 281.286 246.86C280.81 247.075 280.278 247.182 279.69 247.182C279.186 247.182 278.72 247.098 278.29 246.93C277.861 246.762 277.492 246.529 277.184 246.23C276.876 245.922 276.634 245.553 276.456 245.124C276.279 244.695 276.19 244.219 276.19 243.696C276.19 243.183 276.274 242.711 276.442 242.282C276.62 241.843 276.862 241.47 277.17 241.162C277.478 240.854 277.842 240.616 278.262 240.448C278.682 240.271 279.135 240.182 279.62 240.182C280.106 240.182 280.544 240.261 280.936 240.42C281.338 240.579 281.674 240.807 281.944 241.106C282.224 241.405 282.439 241.769 282.588 242.198C282.738 242.618 282.812 243.094 282.812 243.626ZM284.65 241.792C284.65 241.615 284.645 241.386 284.636 241.106C284.626 240.826 284.612 240.579 284.594 240.364H285.84C285.858 240.532 285.872 240.728 285.882 240.952C285.891 241.167 285.896 241.344 285.896 241.484H285.938C286.124 241.092 286.395 240.779 286.75 240.546C287.114 240.303 287.52 240.182 287.968 240.182C288.173 240.182 288.346 240.201 288.486 240.238L288.43 241.456C288.243 241.409 288.042 241.386 287.828 241.386C287.51 241.386 287.235 241.447 287.002 241.568C286.768 241.68 286.572 241.834 286.414 242.03C286.264 242.226 286.152 242.455 286.078 242.716C286.003 242.968 285.966 243.234 285.966 243.514V247H284.65V241.792ZM293.292 237.088H296.708C297.081 237.088 297.455 237.13 297.828 237.214C298.201 237.298 298.533 237.438 298.822 237.634C299.121 237.83 299.359 238.087 299.536 238.404C299.723 238.721 299.816 239.118 299.816 239.594C299.816 240.145 299.657 240.607 299.34 240.98C299.023 241.353 298.603 241.61 298.08 241.75V241.778C298.397 241.815 298.691 241.899 298.962 242.03C299.233 242.151 299.466 242.315 299.662 242.52C299.858 242.725 300.007 242.968 300.11 243.248C300.222 243.528 300.278 243.841 300.278 244.186C300.278 244.662 300.18 245.077 299.984 245.432C299.788 245.787 299.522 246.081 299.186 246.314C298.85 246.538 298.453 246.711 297.996 246.832C297.548 246.944 297.067 247 296.554 247H293.292V237.088ZM294.678 241.274H296.484C296.745 241.274 296.993 241.246 297.226 241.19C297.469 241.125 297.679 241.031 297.856 240.91C298.033 240.779 298.173 240.621 298.276 240.434C298.379 240.238 298.43 240.005 298.43 239.734C298.43 239.202 298.234 238.824 297.842 238.6C297.45 238.367 296.923 238.25 296.26 238.25H294.678V241.274ZM294.678 245.824H296.414C296.703 245.824 296.993 245.801 297.282 245.754C297.581 245.698 297.847 245.605 298.08 245.474C298.323 245.343 298.514 245.171 298.654 244.956C298.803 244.732 298.878 244.452 298.878 244.116C298.878 243.528 298.677 243.103 298.276 242.842C297.875 242.581 297.296 242.45 296.54 242.45H294.678V245.824ZM303.534 247H302.218V240.364H303.534V247ZM303.758 237.97C303.758 238.213 303.67 238.413 303.492 238.572C303.324 238.731 303.119 238.81 302.876 238.81C302.634 238.81 302.428 238.731 302.26 238.572C302.092 238.404 302.008 238.203 302.008 237.97C302.008 237.727 302.092 237.527 302.26 237.368C302.428 237.2 302.634 237.116 302.876 237.116C303.119 237.116 303.324 237.2 303.492 237.368C303.67 237.527 303.758 237.727 303.758 237.97ZM309.957 242.702C309.957 242.207 309.808 241.843 309.509 241.61C309.211 241.367 308.814 241.246 308.319 241.246C307.946 241.246 307.591 241.321 307.255 241.47C306.929 241.61 306.653 241.792 306.429 242.016L305.729 241.176C306.056 240.868 306.453 240.625 306.919 240.448C307.395 240.271 307.904 240.182 308.445 240.182C308.921 240.182 309.332 240.252 309.677 240.392C310.032 240.523 310.321 240.705 310.545 240.938C310.769 241.171 310.937 241.447 311.049 241.764C311.161 242.081 311.217 242.422 311.217 242.786V245.684C311.217 245.908 311.222 246.146 311.231 246.398C311.25 246.641 311.278 246.841 311.315 247H310.125C310.051 246.683 310.013 246.365 310.013 246.048H309.971C309.729 246.403 309.421 246.678 309.047 246.874C308.683 247.07 308.249 247.168 307.745 247.168C307.484 247.168 307.209 247.131 306.919 247.056C306.639 246.991 306.383 246.879 306.149 246.72C305.916 246.561 305.72 246.351 305.561 246.09C305.412 245.829 305.337 245.507 305.337 245.124C305.337 244.62 305.473 244.223 305.743 243.934C306.014 243.635 306.369 243.411 306.807 243.262C307.246 243.103 307.741 243.001 308.291 242.954C308.842 242.907 309.397 242.884 309.957 242.884V242.702ZM309.635 243.836C309.309 243.836 308.968 243.85 308.613 243.878C308.268 243.906 307.951 243.962 307.661 244.046C307.381 244.13 307.148 244.256 306.961 244.424C306.775 244.592 306.681 244.816 306.681 245.096C306.681 245.292 306.719 245.455 306.793 245.586C306.877 245.717 306.985 245.824 307.115 245.908C307.246 245.992 307.391 246.053 307.549 246.09C307.708 246.118 307.871 246.132 308.039 246.132C308.655 246.132 309.127 245.95 309.453 245.586C309.789 245.213 309.957 244.746 309.957 244.186V243.836H309.635ZM316.999 242.044C316.85 241.801 316.64 241.605 316.369 241.456C316.099 241.297 315.795 241.218 315.459 241.218C315.31 241.218 315.161 241.237 315.011 241.274C314.862 241.302 314.727 241.353 314.605 241.428C314.493 241.493 314.4 241.582 314.325 241.694C314.26 241.797 314.227 241.927 314.227 242.086C314.227 242.366 314.353 242.576 314.605 242.716C314.857 242.847 315.235 242.968 315.739 243.08C316.057 243.155 316.351 243.243 316.621 243.346C316.892 243.449 317.125 243.579 317.321 243.738C317.527 243.887 317.685 244.069 317.797 244.284C317.909 244.499 317.965 244.751 317.965 245.04C317.965 245.432 317.891 245.763 317.741 246.034C317.592 246.305 317.391 246.529 317.139 246.706C316.897 246.874 316.617 246.995 316.299 247.07C315.982 247.145 315.655 247.182 315.319 247.182C314.815 247.182 314.321 247.084 313.835 246.888C313.359 246.692 312.963 246.393 312.645 245.992L313.583 245.194C313.761 245.455 314.003 245.675 314.311 245.852C314.629 246.029 314.974 246.118 315.347 246.118C315.515 246.118 315.674 246.104 315.823 246.076C315.982 246.039 316.122 245.983 316.243 245.908C316.374 245.833 316.477 245.735 316.551 245.614C316.626 245.493 316.663 245.339 316.663 245.152C316.663 244.844 316.514 244.615 316.215 244.466C315.926 244.317 315.497 244.177 314.927 244.046C314.703 243.99 314.475 243.925 314.241 243.85C314.017 243.766 313.812 243.654 313.625 243.514C313.439 243.374 313.285 243.201 313.163 242.996C313.051 242.781 312.995 242.52 312.995 242.212C312.995 241.857 313.065 241.554 313.205 241.302C313.355 241.041 313.546 240.831 313.779 240.672C314.013 240.504 314.279 240.383 314.577 240.308C314.876 240.224 315.184 240.182 315.501 240.182C315.977 240.182 316.435 240.275 316.873 240.462C317.321 240.649 317.667 240.919 317.909 241.274L316.999 242.044ZM324.494 243.094C324.485 242.833 324.438 242.59 324.354 242.366C324.279 242.133 324.163 241.932 324.004 241.764C323.855 241.596 323.663 241.465 323.43 241.372C323.206 241.269 322.94 241.218 322.632 241.218C322.352 241.218 322.086 241.269 321.834 241.372C321.591 241.465 321.377 241.596 321.19 241.764C321.013 241.932 320.863 242.133 320.742 242.366C320.63 242.59 320.565 242.833 320.546 243.094H324.494ZM325.824 243.626C325.824 243.701 325.824 243.775 325.824 243.85C325.824 243.925 325.819 243.999 325.81 244.074H320.546C320.555 244.354 320.616 244.62 320.728 244.872C320.849 245.115 321.008 245.329 321.204 245.516C321.4 245.693 321.624 245.833 321.876 245.936C322.137 246.039 322.413 246.09 322.702 246.09C323.15 246.09 323.537 245.992 323.864 245.796C324.191 245.6 324.447 245.362 324.634 245.082L325.558 245.824C325.203 246.291 324.783 246.636 324.298 246.86C323.822 247.075 323.29 247.182 322.702 247.182C322.198 247.182 321.731 247.098 321.302 246.93C320.873 246.762 320.504 246.529 320.196 246.23C319.888 245.922 319.645 245.553 319.468 245.124C319.291 244.695 319.202 244.219 319.202 243.696C319.202 243.183 319.286 242.711 319.454 242.282C319.631 241.843 319.874 241.47 320.182 241.162C320.49 240.854 320.854 240.616 321.274 240.448C321.694 240.271 322.147 240.182 322.632 240.182C323.117 240.182 323.556 240.261 323.948 240.42C324.349 240.579 324.685 240.807 324.956 241.106C325.236 241.405 325.451 241.769 325.6 242.198C325.749 242.618 325.824 243.094 325.824 243.626ZM332.953 245.95C332.701 246.351 332.356 246.659 331.917 246.874C331.488 247.079 331.035 247.182 330.559 247.182C330.046 247.182 329.584 247.093 329.173 246.916C328.763 246.729 328.413 246.477 328.123 246.16C327.834 245.843 327.61 245.469 327.451 245.04C327.293 244.611 327.213 244.153 327.213 243.668C327.213 243.183 327.293 242.73 327.451 242.31C327.61 241.881 327.834 241.507 328.123 241.19C328.422 240.873 328.777 240.625 329.187 240.448C329.598 240.271 330.051 240.182 330.545 240.182C331.087 240.182 331.558 240.299 331.959 240.532C332.361 240.756 332.678 241.031 332.911 241.358H332.939V236.416H334.255V247H332.981V245.95H332.953ZM328.585 243.668C328.585 243.976 328.632 244.275 328.725 244.564C328.819 244.853 328.959 245.11 329.145 245.334C329.332 245.558 329.561 245.74 329.831 245.88C330.102 246.011 330.419 246.076 330.783 246.076C331.119 246.076 331.423 246.011 331.693 245.88C331.973 245.749 332.211 245.577 332.407 245.362C332.603 245.138 332.753 244.881 332.855 244.592C332.967 244.303 333.023 243.999 333.023 243.682C333.023 243.365 332.967 243.061 332.855 242.772C332.753 242.483 332.603 242.226 332.407 242.002C332.211 241.778 331.973 241.601 331.693 241.47C331.423 241.339 331.119 241.274 330.783 241.274C330.419 241.274 330.102 241.339 329.831 241.47C329.561 241.601 329.332 241.778 329.145 242.002C328.959 242.226 328.819 242.483 328.725 242.772C328.632 243.061 328.585 243.36 328.585 243.668ZM248.59 264.768H253.014V266H247.204V256.088H248.59V264.768ZM258.414 261.702C258.414 261.207 258.265 260.843 257.966 260.61C257.668 260.367 257.271 260.246 256.776 260.246C256.403 260.246 256.048 260.321 255.712 260.47C255.386 260.61 255.11 260.792 254.886 261.016L254.186 260.176C254.513 259.868 254.91 259.625 255.376 259.448C255.852 259.271 256.361 259.182 256.902 259.182C257.378 259.182 257.789 259.252 258.134 259.392C258.489 259.523 258.778 259.705 259.002 259.938C259.226 260.171 259.394 260.447 259.506 260.764C259.618 261.081 259.674 261.422 259.674 261.786V264.684C259.674 264.908 259.679 265.146 259.688 265.398C259.707 265.641 259.735 265.841 259.772 266H258.582C258.508 265.683 258.47 265.365 258.47 265.048H258.428C258.186 265.403 257.878 265.678 257.504 265.874C257.14 266.07 256.706 266.168 256.202 266.168C255.941 266.168 255.666 266.131 255.376 266.056C255.096 265.991 254.84 265.879 254.606 265.72C254.373 265.561 254.177 265.351 254.018 265.09C253.869 264.829 253.794 264.507 253.794 264.124C253.794 263.62 253.93 263.223 254.2 262.934C254.471 262.635 254.826 262.411 255.264 262.262C255.703 262.103 256.198 262.001 256.748 261.954C257.299 261.907 257.854 261.884 258.414 261.884V261.702ZM258.092 262.836C257.766 262.836 257.425 262.85 257.07 262.878C256.725 262.906 256.408 262.962 256.118 263.046C255.838 263.13 255.605 263.256 255.418 263.424C255.232 263.592 255.138 263.816 255.138 264.096C255.138 264.292 255.176 264.455 255.25 264.586C255.334 264.717 255.442 264.824 255.572 264.908C255.703 264.992 255.848 265.053 256.006 265.09C256.165 265.118 256.328 265.132 256.496 265.132C257.112 265.132 257.584 264.95 257.91 264.586C258.246 264.213 258.414 263.746 258.414 263.186V262.836H258.092ZM266.52 261.044C266.38 260.829 266.17 260.652 265.89 260.512C265.61 260.363 265.312 260.288 264.994 260.288C264.649 260.288 264.341 260.353 264.07 260.484C263.809 260.615 263.585 260.792 263.398 261.016C263.212 261.231 263.067 261.483 262.964 261.772C262.871 262.061 262.824 262.365 262.824 262.682C262.824 262.999 262.871 263.303 262.964 263.592C263.067 263.881 263.212 264.138 263.398 264.362C263.585 264.577 263.814 264.749 264.084 264.88C264.355 265.011 264.663 265.076 265.008 265.076C265.344 265.076 265.648 265.011 265.918 264.88C266.198 264.749 266.427 264.572 266.604 264.348L267.486 265.146C267.206 265.473 266.856 265.729 266.436 265.916C266.016 266.093 265.54 266.182 265.008 266.182C264.495 266.182 264.019 266.098 263.58 265.93C263.151 265.762 262.778 265.529 262.46 265.23C262.143 264.922 261.891 264.553 261.704 264.124C261.527 263.695 261.438 263.214 261.438 262.682C261.438 262.159 261.527 261.683 261.704 261.254C261.882 260.825 262.129 260.456 262.446 260.148C262.764 259.84 263.137 259.602 263.566 259.434C264.005 259.266 264.476 259.182 264.98 259.182C265.447 259.182 265.909 259.275 266.366 259.462C266.833 259.649 267.202 259.919 267.472 260.274L266.52 261.044ZM270.134 262.248H270.176L272.962 259.364H274.726L271.618 262.374L274.992 266H273.172L270.176 262.556H270.134V266H268.818V255.416H270.134V262.248ZM286.393 262.668C286.393 263.181 286.3 263.653 286.113 264.082C285.936 264.511 285.684 264.885 285.357 265.202C285.04 265.51 284.662 265.753 284.223 265.93C283.784 266.098 283.313 266.182 282.809 266.182C282.305 266.182 281.834 266.098 281.395 265.93C280.956 265.753 280.578 265.51 280.261 265.202C279.944 264.885 279.692 264.511 279.505 264.082C279.328 263.653 279.239 263.181 279.239 262.668C279.239 262.155 279.328 261.688 279.505 261.268C279.692 260.839 279.944 260.47 280.261 260.162C280.578 259.854 280.956 259.616 281.395 259.448C281.834 259.271 282.305 259.182 282.809 259.182C283.313 259.182 283.784 259.271 284.223 259.448C284.662 259.616 285.04 259.854 285.357 260.162C285.684 260.47 285.936 260.839 286.113 261.268C286.3 261.688 286.393 262.155 286.393 262.668ZM285.021 262.668C285.021 262.351 284.97 262.047 284.867 261.758C284.774 261.469 284.634 261.217 284.447 261.002C284.26 260.778 284.027 260.601 283.747 260.47C283.476 260.339 283.164 260.274 282.809 260.274C282.454 260.274 282.137 260.339 281.857 260.47C281.586 260.601 281.358 260.778 281.171 261.002C280.984 261.217 280.84 261.469 280.737 261.758C280.644 262.047 280.597 262.351 280.597 262.668C280.597 262.985 280.644 263.289 280.737 263.578C280.84 263.867 280.984 264.124 281.171 264.348C281.358 264.572 281.586 264.749 281.857 264.88C282.137 265.011 282.454 265.076 282.809 265.076C283.164 265.076 283.476 265.011 283.747 264.88C284.027 264.749 284.26 264.572 284.447 264.348C284.634 264.124 284.774 263.867 284.867 263.578C284.97 263.289 285.021 262.985 285.021 262.668ZM291.34 260.442H289.8V266H288.484V260.442H287.168V259.364H288.484V257.978C288.484 257.586 288.526 257.227 288.61 256.9C288.703 256.564 288.848 256.275 289.044 256.032C289.249 255.789 289.506 255.598 289.814 255.458C290.131 255.318 290.514 255.248 290.962 255.248C291.279 255.248 291.555 255.281 291.788 255.346L291.634 256.48C291.531 256.452 291.429 256.429 291.326 256.41C291.223 256.391 291.107 256.382 290.976 256.382C290.724 256.382 290.519 256.429 290.36 256.522C290.211 256.606 290.094 256.723 290.01 256.872C289.926 257.021 289.87 257.194 289.842 257.39C289.814 257.577 289.8 257.773 289.8 257.978V259.364H291.34V260.442ZM304.962 264.46C304.57 264.992 304.061 265.426 303.436 265.762C302.81 266.089 302.059 266.252 301.182 266.252C300.426 266.252 299.726 266.126 299.082 265.874C298.447 265.613 297.896 265.253 297.43 264.796C296.972 264.329 296.613 263.779 296.352 263.144C296.09 262.5 295.96 261.795 295.96 261.03C295.96 260.255 296.09 259.551 296.352 258.916C296.622 258.272 296.991 257.726 297.458 257.278C297.934 256.821 298.494 256.466 299.138 256.214C299.782 255.962 300.482 255.836 301.238 255.836C301.574 255.836 301.914 255.869 302.26 255.934C302.605 255.999 302.936 256.097 303.254 256.228C303.571 256.359 303.86 256.522 304.122 256.718C304.383 256.905 304.607 257.124 304.794 257.376L303.702 258.216C303.459 257.88 303.114 257.605 302.666 257.39C302.227 257.166 301.751 257.054 301.238 257.054C300.659 257.054 300.136 257.161 299.67 257.376C299.212 257.581 298.82 257.866 298.494 258.23C298.167 258.594 297.915 259.019 297.738 259.504C297.56 259.98 297.472 260.489 297.472 261.03C297.472 261.59 297.556 262.113 297.724 262.598C297.901 263.083 298.148 263.508 298.466 263.872C298.792 264.227 299.184 264.507 299.642 264.712C300.108 264.917 300.626 265.02 301.196 265.02C301.756 265.02 302.264 264.908 302.722 264.684C303.179 264.46 303.557 264.133 303.856 263.704L304.962 264.46ZM307.65 266H306.334V255.416H307.65V266ZM314.073 261.702C314.073 261.207 313.923 260.843 313.625 260.61C313.326 260.367 312.929 260.246 312.435 260.246C312.061 260.246 311.707 260.321 311.371 260.47C311.044 260.61 310.769 260.792 310.545 261.016L309.845 260.176C310.171 259.868 310.568 259.625 311.035 259.448C311.511 259.271 312.019 259.182 312.561 259.182C313.037 259.182 313.447 259.252 313.793 259.392C314.147 259.523 314.437 259.705 314.661 259.938C314.885 260.171 315.053 260.447 315.165 260.764C315.277 261.081 315.333 261.422 315.333 261.786V264.684C315.333 264.908 315.337 265.146 315.347 265.398C315.365 265.641 315.393 265.841 315.431 266H314.241C314.166 265.683 314.129 265.365 314.129 265.048H314.087C313.844 265.403 313.536 265.678 313.163 265.874C312.799 266.07 312.365 266.168 311.861 266.168C311.599 266.168 311.324 266.131 311.035 266.056C310.755 265.991 310.498 265.879 310.265 265.72C310.031 265.561 309.835 265.351 309.677 265.09C309.527 264.829 309.453 264.507 309.453 264.124C309.453 263.62 309.588 263.223 309.859 262.934C310.129 262.635 310.484 262.411 310.923 262.262C311.361 262.103 311.856 262.001 312.407 261.954C312.957 261.907 313.513 261.884 314.073 261.884V261.702ZM313.751 262.836C313.424 262.836 313.083 262.85 312.729 262.878C312.383 262.906 312.066 262.962 311.777 263.046C311.497 263.13 311.263 263.256 311.077 263.424C310.89 263.592 310.797 263.816 310.797 264.096C310.797 264.292 310.834 264.455 310.909 264.586C310.993 264.717 311.1 264.824 311.231 264.908C311.361 264.992 311.506 265.053 311.665 265.09C311.823 265.118 311.987 265.132 312.155 265.132C312.771 265.132 313.242 264.95 313.569 264.586C313.905 264.213 314.073 263.746 314.073 263.186V262.836H313.751ZM317.53 260.792C317.53 260.615 317.526 260.386 317.516 260.106C317.507 259.826 317.493 259.579 317.474 259.364H318.72C318.739 259.532 318.753 259.728 318.762 259.952C318.772 260.167 318.776 260.344 318.776 260.484H318.818C319.005 260.092 319.276 259.779 319.63 259.546C319.994 259.303 320.4 259.182 320.848 259.182C321.054 259.182 321.226 259.201 321.366 259.238L321.31 260.456C321.124 260.409 320.923 260.386 320.708 260.386C320.391 260.386 320.116 260.447 319.882 260.568C319.649 260.68 319.453 260.834 319.294 261.03C319.145 261.226 319.033 261.455 318.958 261.716C318.884 261.968 318.846 262.234 318.846 262.514V266H317.53V260.792ZM323.933 266H322.617V259.364H323.933V266ZM324.157 256.97C324.157 257.213 324.068 257.413 323.891 257.572C323.723 257.731 323.517 257.81 323.275 257.81C323.032 257.81 322.827 257.731 322.659 257.572C322.491 257.404 322.407 257.203 322.407 256.97C322.407 256.727 322.491 256.527 322.659 256.368C322.827 256.2 323.032 256.116 323.275 256.116C323.517 256.116 323.723 256.2 323.891 256.368C324.068 256.527 324.157 256.727 324.157 256.97ZM329.474 260.442H327.71V263.9C327.71 264.301 327.784 264.591 327.934 264.768C328.083 264.936 328.321 265.02 328.648 265.02C328.769 265.02 328.9 265.006 329.04 264.978C329.18 264.95 329.306 264.908 329.418 264.852L329.46 265.93C329.301 265.986 329.124 266.028 328.928 266.056C328.741 266.093 328.545 266.112 328.34 266.112C327.714 266.112 327.234 265.939 326.898 265.594C326.571 265.249 326.408 264.731 326.408 264.04V260.442H325.134V259.364H326.408V257.46H327.71V259.364H329.474V260.442ZM333.353 264.572H333.381L335.215 259.364H336.615L333.395 267.568C333.283 267.848 333.162 268.095 333.031 268.31C332.901 268.534 332.747 268.721 332.569 268.87C332.392 269.029 332.182 269.15 331.939 269.234C331.706 269.318 331.426 269.36 331.099 269.36C330.959 269.36 330.815 269.351 330.665 269.332C330.525 269.323 330.381 269.299 330.231 269.262L330.357 268.1C330.581 268.175 330.801 268.212 331.015 268.212C331.361 268.212 331.617 268.114 331.785 267.918C331.953 267.731 332.107 267.461 332.247 267.106L332.667 266L329.825 259.364H331.295L333.353 264.572Z" fill="white"/>
<path d="M238.096 265.74C237.808 265.74 237.576 265.507 237.576 265.22C237.576 261.06 234.177 257.676 230 257.676C225.823 257.676 222.424 261.06 222.424 265.22C222.424 265.507 222.192 265.74 221.904 265.74C221.617 265.74 221.384 265.507 221.384 265.22C221.384 260.486 225.249 256.636 230 256.636C234.751 256.636 238.616 260.486 238.616 265.22C238.616 265.507 238.384 265.74 238.096 265.74Z" fill="white"/>
<path d="M229.998 253.934C226.216 253.934 223.138 250.869 223.138 247.099C223.138 243.328 226.216 240.26 229.998 240.26C233.783 240.26 236.862 243.328 236.862 247.099C236.862 250.868 233.783 253.934 229.998 253.934ZM229.998 241.3C226.789 241.3 224.178 243.902 224.178 247.099C224.178 250.295 226.789 252.894 229.998 252.894C233.21 252.894 235.822 250.295 235.822 247.099C235.822 243.902 233.21 241.3 229.998 241.3Z" fill="white"/>
<path d="M228.203 249.407C228.07 249.407 227.937 249.356 227.835 249.254C227.632 249.05 227.633 248.721 227.836 248.518L231.429 244.939C231.633 244.736 231.961 244.737 232.165 244.941C232.368 245.144 232.367 245.473 232.164 245.676L228.57 249.256C228.469 249.356 228.336 249.407 228.203 249.407Z" fill="white"/>
<path d="M231.797 249.407C231.664 249.407 231.531 249.356 231.429 249.255L227.836 245.676C227.633 245.473 227.632 245.144 227.835 244.941C228.038 244.738 228.367 244.736 228.57 244.939L232.164 248.518C232.367 248.721 232.368 249.05 232.165 249.254C232.063 249.355 231.93 249.407 231.797 249.407Z" fill="white"/>
</svg>
